<svg id="_3rd_process" data-name="3rd_process" xmlns="http://www.w3.org/2000/svg" width="280.871" height="162.6" viewBox="0 0 280.871 162.6">
  <path id="Path_116" data-name="Path 116" d="M271.305-180.473a59.1,59.1,0,0,1,6.381-20.1,48.183,48.183,0,0,1,11.845-14.412,48.976,48.976,0,0,1,16.281-8.691,64.815,64.815,0,0,1,19.728-2.9,59.321,59.321,0,0,1,19.876,3.117,45.241,45.241,0,0,1,15.109,8.691A38.178,38.178,0,0,1,370.17-201.7a39.045,39.045,0,0,1,3.337,16.171,47.242,47.242,0,0,1-1.686,13.348,31.93,31.93,0,0,1-4.915,10.085,28.907,28.907,0,0,1-7.921,7.26,49.266,49.266,0,0,1-10.671,4.951q14.3,4.511,21.342,13.752t7.042,23.213a47.838,47.838,0,0,1-4.4,21.012,45.086,45.086,0,0,1-11.881,15.328,51.728,51.728,0,0,1-17.308,9.425,67.339,67.339,0,0,1-20.866,3.19,71.141,71.141,0,0,1-20.9-2.75,45.38,45.38,0,0,1-15.512-8.141,49.188,49.188,0,0,1-11.222-13.2,89.171,89.171,0,0,1-7.921-18.042l11.992-4.951a14.475,14.475,0,0,1,8.874-1.064,8.577,8.577,0,0,1,5.977,4.475c1.32,2.567,2.786,5.1,4.364,7.59a30.572,30.572,0,0,0,5.648,6.638,27.061,27.061,0,0,0,7.773,4.731,27.969,27.969,0,0,0,10.6,1.833,30.059,30.059,0,0,0,12.1-2.274,26.317,26.317,0,0,0,8.654-5.868,24.193,24.193,0,0,0,5.171-8.1,24.8,24.8,0,0,0,1.687-8.948,41.634,41.634,0,0,0-1.21-10.414,15.366,15.366,0,0,0-5.061-7.958c-2.567-2.2-6.233-3.923-11.038-5.171s-11.258-1.87-19.325-1.87V-156.82a68.817,68.817,0,0,0,16.612-1.87,28.383,28.383,0,0,0,10.524-4.915,16.5,16.5,0,0,0,5.428-7.517,29.139,29.139,0,0,0,1.54-9.681q0-11.222-6.271-17.052T324-203.686a27.731,27.731,0,0,0-8.911,1.356,25.27,25.27,0,0,0-7.3,3.851,24.061,24.061,0,0,0-5.464,5.8,25.072,25.072,0,0,0-3.3,7.26c-1.246,3.373-2.86,5.61-4.877,6.711s-4.877,1.356-8.544.771Z" transform="translate(-266.684 226.569)" fill="#f2f2de"/>
  <path id="Path_117" data-name="Path 117" d="M287.146-178.549a25.76,25.76,0,0,1,7.837,1.062,15.073,15.073,0,0,1,5.464,2.966,11.76,11.76,0,0,1,3.2,4.559,15.679,15.679,0,0,1,1.042,5.808,16.02,16.02,0,0,1-1.093,6,12.514,12.514,0,0,1-3.279,4.7,15.241,15.241,0,0,1-5.475,3.06,24.516,24.516,0,0,1-7.7,1.093h-6.276V-133.4h-8.4v-45.15Zm0,22.7a12.662,12.662,0,0,0,4.028-.583,7.647,7.647,0,0,0,2.861-1.655,6.7,6.7,0,0,0,1.7-2.623,10.009,10.009,0,0,0,.562-3.445,9.1,9.1,0,0,0-.562-3.279,6.489,6.489,0,0,0-1.686-2.5,7.521,7.521,0,0,0-2.841-1.582,13.448,13.448,0,0,0-4.059-.541h-6.276v16.205Z" transform="translate(-265.244 238.524)" fill="#a1ba1a"/>
  <path id="Path_118" data-name="Path 118" d="M307.9-162.373a13.829,13.829,0,0,1,3.56-4.517,7.584,7.584,0,0,1,4.871-1.634,5.954,5.954,0,0,1,3.56.968l-.5,5.776a1.47,1.47,0,0,1-.447.791,1.267,1.267,0,0,1-.8.24,9.085,9.085,0,0,1-1.384-.156,10.715,10.715,0,0,0-1.8-.156,6.466,6.466,0,0,0-2.279.375,5.7,5.7,0,0,0-1.79,1.072,7.357,7.357,0,0,0-1.405,1.707,16.625,16.625,0,0,0-1.145,2.279V-135.9h-7.712v-32.036h4.527a2.494,2.494,0,0,1,1.655.416,2.491,2.491,0,0,1,.624,1.52Z" transform="translate(-258.235 241.02)" fill="#a1ba1a"/>
  <path id="Path_119" data-name="Path 119" d="M331.969-141.378a6.8,6.8,0,0,0,5.923-2.685q1.92-2.687,1.915-7.868t-1.915-7.9a6.764,6.764,0,0,0-5.923-2.716,6.877,6.877,0,0,0-6.006,2.726q-1.95,2.731-1.956,7.89t1.956,7.847a6.913,6.913,0,0,0,6.006,2.706m0-27.071a17.492,17.492,0,0,1,6.485,1.155,14.167,14.167,0,0,1,4.995,3.279,14.369,14.369,0,0,1,3.2,5.183,19.712,19.712,0,0,1,1.124,6.838,19.817,19.817,0,0,1-1.124,6.869,14.7,14.7,0,0,1-3.2,5.214,13.988,13.988,0,0,1-4.995,3.31,17.517,17.517,0,0,1-6.485,1.155,17.691,17.691,0,0,1-6.526-1.155,13.935,13.935,0,0,1-5.006-3.31,14.883,14.883,0,0,1-3.216-5.214,19.552,19.552,0,0,1-1.145-6.869,19.448,19.448,0,0,1,1.145-6.838,14.548,14.548,0,0,1,3.216-5.183,14.112,14.112,0,0,1,5.006-3.279A17.665,17.665,0,0,1,331.969-168.449Z" transform="translate(-254.388 241.038)" fill="#a1ba1a"/>
  <path id="Path_120" data-name="Path 120" d="M367.645-161.174a3.863,3.863,0,0,1-.666.687,1.57,1.57,0,0,1-.958.25,2.126,2.126,0,0,1-1.155-.365q-.562-.36-1.343-.812a9.949,9.949,0,0,0-1.852-.812,8.576,8.576,0,0,0-2.675-.353,8.14,8.14,0,0,0-3.56.728,6.749,6.749,0,0,0-2.539,2.113,9.467,9.467,0,0,0-1.52,3.32,17.944,17.944,0,0,0-.5,4.424,17.3,17.3,0,0,0,.552,4.559A9.726,9.726,0,0,0,353-144.084a6.789,6.789,0,0,0,2.5,2.061,7.576,7.576,0,0,0,3.31.708,8.212,8.212,0,0,0,2.987-.458,9.342,9.342,0,0,0,1.915-1c.521-.365.979-.7,1.364-1a2.024,2.024,0,0,1,1.29-.447,1.564,1.564,0,0,1,1.405.718l2.217,2.81a13.908,13.908,0,0,1-2.779,2.508,14.972,14.972,0,0,1-3.1,1.624,15.863,15.863,0,0,1-3.31.864,23.427,23.427,0,0,1-3.393.25,14.207,14.207,0,0,1-5.589-1.114,13.2,13.2,0,0,1-4.59-3.226,15.448,15.448,0,0,1-3.1-5.2,20.063,20.063,0,0,1-1.145-7,20.392,20.392,0,0,1,1.02-6.547,14.817,14.817,0,0,1,2.976-5.214,13.648,13.648,0,0,1,4.871-3.445,16.776,16.776,0,0,1,6.682-1.249,15.915,15.915,0,0,1,6.3,1.155,15.331,15.331,0,0,1,4.85,3.31Z" transform="translate(-247.69 241.038)" fill="#a1ba1a"/>
  <path id="Path_121" data-name="Path 121" d="M372.912-150.964a15.122,15.122,0,0,0,.874,4.256,8.727,8.727,0,0,0,1.811,2.966,7.1,7.1,0,0,0,2.675,1.749,9.671,9.671,0,0,0,3.413.583,10.637,10.637,0,0,0,3.236-.437,15.261,15.261,0,0,0,2.374-.968q1.013-.532,1.778-.968a2.963,2.963,0,0,1,1.479-.437,1.6,1.6,0,0,1,1.436.718l2.217,2.81a12.83,12.83,0,0,1-2.873,2.508,16.026,16.026,0,0,1-3.321,1.624,18.236,18.236,0,0,1-3.528.864,25.384,25.384,0,0,1-3.486.25,17.106,17.106,0,0,1-6.214-1.114,13.909,13.909,0,0,1-5-3.279,15.369,15.369,0,0,1-3.341-5.371,20.749,20.749,0,0,1-1.218-7.41,17.757,17.757,0,0,1,1.062-6.172,14.851,14.851,0,0,1,3.049-5.027,14.309,14.309,0,0,1,4.84-3.382,15.912,15.912,0,0,1,6.443-1.249,15.673,15.673,0,0,1,5.589.968,12.141,12.141,0,0,1,4.4,2.82,13.119,13.119,0,0,1,2.894,4.559,17.027,17.027,0,0,1,1.04,6.172,4.981,4.981,0,0,1-.375,2.352,1.555,1.555,0,0,1-1.436.614Zm14.706-4.652a9.315,9.315,0,0,0-.417-2.831,6.679,6.679,0,0,0-1.269-2.321,5.86,5.86,0,0,0-2.134-1.582,7.37,7.37,0,0,0-3.017-.572,7.126,7.126,0,0,0-5.256,1.9,9.338,9.338,0,0,0-2.457,5.4Z" transform="translate(-242.15 241.038)" fill="#a1ba1a"/>
  <path id="Path_122" data-name="Path 122" d="M411.508-161.7a2.023,2.023,0,0,1-.656.7,1.7,1.7,0,0,1-.873.209,2.75,2.75,0,0,1-1.2-.312c-.426-.209-.925-.448-1.489-.708a13.413,13.413,0,0,0-1.915-.7,9.22,9.22,0,0,0-2.55-.312,5.84,5.84,0,0,0-3.57.968,3.018,3.018,0,0,0-1.3,2.529,2.4,2.4,0,0,0,.676,1.727,6.083,6.083,0,0,0,1.78,1.239,17.382,17.382,0,0,0,2.509.947c.937.281,1.893.593,2.861.927s1.916.707,2.853,1.134a10.061,10.061,0,0,1,2.518,1.624,7.543,7.543,0,0,1,1.78,2.363,7.481,7.481,0,0,1,.667,3.31,10.773,10.773,0,0,1-.823,4.256,9.212,9.212,0,0,1-2.455,3.372,11.549,11.549,0,0,1-4.008,2.217,17.447,17.447,0,0,1-5.515.8,17.431,17.431,0,0,1-3.227-.3,19.048,19.048,0,0,1-3.029-.822,16.853,16.853,0,0,1-2.685-1.249,13.092,13.092,0,0,1-2.174-1.561l1.78-2.935a2.505,2.505,0,0,1,.812-.812,2.274,2.274,0,0,1,1.187-.281,2.5,2.5,0,0,1,1.363.406c.427.27.915.562,1.479.874a13.326,13.326,0,0,0,1.987.874,8.715,8.715,0,0,0,2.883.406,7.516,7.516,0,0,0,2.363-.333A5,5,0,0,0,405.16-142a3.239,3.239,0,0,0,.937-1.239,3.651,3.651,0,0,0,.292-1.446,2.588,2.588,0,0,0-.667-1.842,5.843,5.843,0,0,0-1.78-1.249,17.065,17.065,0,0,0-2.529-.958c-.947-.281-1.915-.583-2.9-.915a27,27,0,0,1-2.9-1.177,9.882,9.882,0,0,1-2.529-1.7,7.708,7.708,0,0,1-1.78-2.529,8.832,8.832,0,0,1-.677-3.622,9.241,9.241,0,0,1,.781-3.747,8.83,8.83,0,0,1,2.3-3.112,11.417,11.417,0,0,1,3.778-2.123,15.712,15.712,0,0,1,5.226-.791,15.986,15.986,0,0,1,6.025,1.093,13.6,13.6,0,0,1,4.527,2.873Z" transform="translate(-236.063 241.038)" fill="#a1ba1a"/>
  <path id="Path_123" data-name="Path 123" d="M431.662-161.7a2.034,2.034,0,0,1-.656.7,1.7,1.7,0,0,1-.874.209,2.741,2.741,0,0,1-1.2-.312c-.427-.209-.927-.448-1.489-.708a13.474,13.474,0,0,0-1.915-.7,9.221,9.221,0,0,0-2.55-.312,5.837,5.837,0,0,0-3.569.968,3.016,3.016,0,0,0-1.3,2.529,2.4,2.4,0,0,0,.677,1.727,6.05,6.05,0,0,0,1.78,1.239,17.363,17.363,0,0,0,2.508.947c.937.281,1.895.593,2.863.927s1.915.707,2.851,1.134a10.068,10.068,0,0,1,2.519,1.624,7.562,7.562,0,0,1,1.78,2.363,7.482,7.482,0,0,1,.666,3.31,10.794,10.794,0,0,1-.822,4.256,9.216,9.216,0,0,1-2.457,3.372,11.531,11.531,0,0,1-4.007,2.217,17.449,17.449,0,0,1-5.517.8,17.426,17.426,0,0,1-3.226-.3,19.05,19.05,0,0,1-3.029-.822,16.855,16.855,0,0,1-2.685-1.249,13.1,13.1,0,0,1-2.176-1.561l1.78-2.935a2.5,2.5,0,0,1,.812-.812,2.276,2.276,0,0,1,1.186-.281,2.511,2.511,0,0,1,1.364.406c.427.27.916.562,1.477.874a13.406,13.406,0,0,0,1.988.874,8.71,8.71,0,0,0,2.883.406,7.521,7.521,0,0,0,2.363-.333,4.994,4.994,0,0,0,1.624-.853,3.239,3.239,0,0,0,.937-1.239,3.672,3.672,0,0,0,.291-1.446,2.587,2.587,0,0,0-.666-1.842,5.874,5.874,0,0,0-1.78-1.249,17.115,17.115,0,0,0-2.529-.958c-.948-.281-1.916-.583-2.9-.915a26.991,26.991,0,0,1-2.9-1.177,9.881,9.881,0,0,1-2.529-1.7,7.689,7.689,0,0,1-1.78-2.529,8.811,8.811,0,0,1-.677-3.622,9.221,9.221,0,0,1,.781-3.747,8.83,8.83,0,0,1,2.3-3.112,11.391,11.391,0,0,1,3.778-2.123,15.709,15.709,0,0,1,5.224-.791,15.993,15.993,0,0,1,6.026,1.093,13.608,13.608,0,0,1,4.527,2.873Z" transform="translate(-231.046 241.038)" fill="#a1ba1a"/>
  <path id="Path_124" data-name="Path 124" d="M441.031-174.541a4.41,4.41,0,0,1-.406,1.873,5.159,5.159,0,0,1-1.072,1.53,5.169,5.169,0,0,1-1.582,1.04,4.852,4.852,0,0,1-1.936.4,4.648,4.648,0,0,1-1.885-.4,5,5,0,0,1-1.55-1.04,5.043,5.043,0,0,1-1.04-1.53,4.537,4.537,0,0,1-.4-1.873,4.827,4.827,0,0,1,.4-1.936,4.924,4.924,0,0,1,1.04-1.561,5.032,5.032,0,0,1,1.55-1.052,4.639,4.639,0,0,1,1.885-.385,4.844,4.844,0,0,1,1.936.385,5.2,5.2,0,0,1,1.582,1.052,5.027,5.027,0,0,1,1.072,1.561,4.69,4.69,0,0,1,.406,1.936m-1.062,9.336v32.036h-7.743V-165.2Z" transform="translate(-225.736 238.294)" fill="#a1ba1a"/>
  <path id="Path_125" data-name="Path 125" d="M449.9-164.015a20.875,20.875,0,0,1,2.049-1.8,12.9,12.9,0,0,1,2.279-1.405,12.749,12.749,0,0,1,2.572-.905,12.9,12.9,0,0,1,3-.322,11.484,11.484,0,0,1,4.652.884,9.21,9.21,0,0,1,3.393,2.5,10.972,10.972,0,0,1,2.061,3.841,16.36,16.36,0,0,1,.7,4.923v20.389h-7.712V-156.3a6.91,6.91,0,0,0-1.344-4.549,5.022,5.022,0,0,0-4.089-1.6,8.027,8.027,0,0,0-3.748.905,13.392,13.392,0,0,0-3.308,2.467v23.168h-7.712v-32.036h4.714a1.9,1.9,0,0,1,1.967,1.405Z" transform="translate(-222.866 241.038)" fill="#a1ba1a"/>
  <path id="Path_126" data-name="Path 126" d="M497.625-166.844v2.873q0,1.373-1.655,1.686l-2.873.531a9.746,9.746,0,0,1,.656,3.622,9.511,9.511,0,0,1-.947,4.288,9.594,9.594,0,0,1-2.644,3.269,12.349,12.349,0,0,1-3.975,2.071,16.186,16.186,0,0,1-4.955.739,17.007,17.007,0,0,1-1.811-.094q-.875-.094-1.717-.25-1.5.9-1.5,2.03a1.494,1.494,0,0,0,.9,1.415,7.246,7.246,0,0,0,2.352.646,33.3,33.3,0,0,0,3.341.229c1.249.031,2.529.1,3.841.209a30.726,30.726,0,0,1,3.841.541,11.268,11.268,0,0,1,3.341,1.239,6.558,6.558,0,0,1,2.363,2.289,7.069,7.069,0,0,1,.884,3.737,8.784,8.784,0,0,1-1.04,4.122,11.107,11.107,0,0,1-3.029,3.559,15.8,15.8,0,0,1-4.871,2.508,21,21,0,0,1-6.578.958,25.08,25.08,0,0,1-6.307-.708,15.022,15.022,0,0,1-4.465-1.873,8.079,8.079,0,0,1-2.654-2.7,6.331,6.331,0,0,1-.874-3.185,5.445,5.445,0,0,1,1.364-3.768,9.371,9.371,0,0,1,3.726-2.414,5.384,5.384,0,0,1-2.03-1.749,4.989,4.989,0,0,1-.749-2.873,4.54,4.54,0,0,1,.271-1.489,6.3,6.3,0,0,1,.781-1.509,7.421,7.421,0,0,1,1.29-1.426,8.929,8.929,0,0,1,1.842-1.2,10.09,10.09,0,0,1-3.819-3.5,9.342,9.342,0,0,1-1.4-5.121,9.545,9.545,0,0,1,.958-4.3,9.606,9.606,0,0,1,2.654-3.279,12.08,12.08,0,0,1,4.028-2.071,17.058,17.058,0,0,1,5.068-.718,17.054,17.054,0,0,1,3.872.416,13.162,13.162,0,0,1,3.31,1.239Zm-7.681,32.379a2.133,2.133,0,0,0-.562-1.53,3.694,3.694,0,0,0-1.53-.927,11.259,11.259,0,0,0-2.259-.478c-.863-.1-1.779-.187-2.746-.24s-1.967-.094-3-.135-2.041-.125-3.019-.25a7.184,7.184,0,0,0-2.071,1.686,3.436,3.436,0,0,0-.8,2.248,3.1,3.1,0,0,0,.427,1.571,3.53,3.53,0,0,0,1.343,1.27,7.937,7.937,0,0,0,2.383.822,18.453,18.453,0,0,0,3.591.3,18.274,18.274,0,0,0,3.716-.333,9,9,0,0,0,2.582-.906,3.879,3.879,0,0,0,1.478-1.374A3.337,3.337,0,0,0,489.944-134.465ZM481.232-152.7a7.239,7.239,0,0,0,2.5-.4,4.918,4.918,0,0,0,1.77-1.072,4.453,4.453,0,0,0,1.062-1.655,6.084,6.084,0,0,0,.353-2.123,5.033,5.033,0,0,0-1.415-3.768,5.881,5.881,0,0,0-4.268-1.384,5.85,5.85,0,0,0-4.256,1.384,5.035,5.035,0,0,0-1.426,3.768,5.962,5.962,0,0,0,.365,2.092,4.56,4.56,0,0,0,1.062,1.665,4.765,4.765,0,0,0,1.78,1.093A7.241,7.241,0,0,0,481.232-152.7Z" transform="translate(-216.754 241.026)" fill="#a1ba1a"/>
</svg>
