<svg xmlns="http://www.w3.org/2000/svg" width="103.724" height="78.815" fill="#fff" xmlns:v="https://vecta.io/nano"><path d="M62.374 78.816v-5.37c13.857-5.753 26.076-17.408 28.824-32.1-7.988 6.076-18.992 6.277-27.197.496s-11.72-16.2-8.688-25.777S67.226-.002 77.262-.001c16.853 0 26.464 13.153 26.464 31 0 24.468-19.9 40.732-41.35 47.814m-54.238.003v-5.37c13.857-5.753 26.076-17.408 28.824-32.1-7.988 6.076-19 6.277-27.196.497s-11.72-16.208-8.7-25.775S12.987 0 23.023-.001c16.853 0 26.464 13.153 26.464 31 0 24.468-19.9 40.732-41.35 47.814"/></svg>