<svg xmlns="http://www.w3.org/2000/svg" width="103.724" height="78.816" fill="#fff" xmlns:v="https://vecta.io/nano"><path d="M41.35-.001v5.37c-13.857 5.753-26.076 17.408-28.824 32.1 7.988-6.08 18.993-6.282 27.2-.502a23.02 23.02 0 0 1 8.69 25.78 23.01 23.01 0 0 1-21.952 16.068C9.6 78.812 0 65.66 0 47.812 0 23.344 19.9 7.08 41.35-.002m54.237.001v5.37C81.73 11.12 69.5 22.776 66.763 37.468c7.988-6.08 18.993-6.282 27.2-.502a23.02 23.02 0 0 1 8.69 25.78C99.62 72.326 90.74 78.814 80.7 78.812c-16.853 0-26.464-13.153-26.464-31 0-24.468 19.9-40.732 41.35-47.814"/></svg>