<svg xmlns="http://www.w3.org/2000/svg" width="308.613" height="308.613" xmlns:v="https://vecta.io/nano"><path d="M154.307 0c85.22 0 154.307 69.086 154.307 154.307s-69.086 154.307-154.307 154.307S0 239.528 0 154.307C.01 69.1 69.1.01 154.307 0" fill="#a1ba1a" fill-rule="evenodd"/><path d="M66.683 135.524v15.794h20v7.936h-20v21.735h-9.96v-53.362h33.654v7.9zm72.55 18.783c.04-2.675-.36-5.34-1.18-7.885a16.88 16.88 0 0 0-3.358-5.916 14.29 14.29 0 0 0-5.3-3.727 19.77 19.77 0 0 0-14.058 0 14.54 14.54 0 0 0-5.315 3.727 16.72 16.72 0 0 0-3.382 5.916 26.87 26.87 0 0 0 0 15.757 16.55 16.55 0 0 0 3.382 5.9 14.64 14.64 0 0 0 5.315 3.715 19.77 19.77 0 0 0 14.058 0 14.46 14.46 0 0 0 5.29-3.715 16.7 16.7 0 0 0 3.358-5.9 24.46 24.46 0 0 0 1.181-7.872m10.148 0a29.72 29.72 0 0 1-1.932 10.86 25.68 25.68 0 0 1-5.485 8.66 24.91 24.91 0 0 1-8.524 5.7 30.77 30.77 0 0 1-22.1 0 25.07 25.07 0 0 1-8.536-5.7c-2.407-2.484-4.286-5.43-5.523-8.66a31.17 31.17 0 0 1 0-21.734 25.57 25.57 0 0 1 5.523-8.647 25.07 25.07 0 0 1 8.536-5.708 28.75 28.75 0 0 1 11.033-2.041c2.576-.018 5.143.296 7.638.934 2.297.6 4.506 1.485 6.568 2.657a24.29 24.29 0 0 1 5.374 4.17 25.39 25.39 0 0 1 4.035 5.486 26.85 26.85 0 0 1 2.533 6.568 31.13 31.13 0 0 1 .86 7.454zm98.313 0c.04-2.675-.36-5.34-1.18-7.885a16.88 16.88 0 0 0-3.358-5.916 14.29 14.29 0 0 0-5.3-3.727 19.78 19.78 0 0 0-14.06 0 14.55 14.55 0 0 0-5.314 3.727 16.72 16.72 0 0 0-3.383 5.916 26.9 26.9 0 0 0 0 15.757 16.55 16.55 0 0 0 3.383 5.9c1.472 1.62 3.288 2.9 5.314 3.715a19.78 19.78 0 0 0 14.06 0 14.58 14.58 0 0 0 5.3-3.715c1.5-1.716 2.654-3.724 3.358-5.9.82-2.542 1.22-5.2 1.18-7.872m10.148 0a29.76 29.76 0 0 1-1.932 10.86 25.68 25.68 0 0 1-5.485 8.66 24.91 24.91 0 0 1-8.524 5.7 30.77 30.77 0 0 1-22.1 0c-3.208-1.3-6.115-3.232-8.537-5.7a25.63 25.63 0 0 1-5.522-8.66 31.17 31.17 0 0 1 0-21.734 25.59 25.59 0 0 1 5.522-8.647 25.11 25.11 0 0 1 8.537-5.708 28.75 28.75 0 0 1 11.033-2.041c2.575-.018 5.142.295 7.637.934a26.79 26.79 0 0 1 6.57 2.657 24.27 24.27 0 0 1 5.374 4.17c1.587 1.635 2.943 3.484 4.035 5.486a26.9 26.9 0 0 1 2.533 6.568 31.22 31.22 0 0 1 .858 7.454zm-86.1-19.2v16.143h20.442v8.113h-20.442v22.216h-10.184v-54.543h34.4v8.07z" fill="#fff"/></svg>