<svg xmlns="http://www.w3.org/2000/svg" width="308.613" height="308.613" xmlns:v="https://vecta.io/nano"><path d="M154.307 0c85.22 0 154.307 69.086 154.307 154.307s-69.086 154.307-154.307 154.307S0 239.528 0 154.307C.01 69.1 69.1.01 154.307 0" fill="#a1ba1a" fill-rule="evenodd"/><path d="M66.683 135.524v15.794h20v7.936h-20v21.735h-9.96v-53.362h33.654v7.9zm72.55 18.783c.04-2.675-.36-5.34-1.18-7.885a16.88 16.88 0 0 0-3.358-5.916 14.29 14.29 0 0 0-5.3-3.727 19.77 19.77 0 0 0-14.058 0 14.54 14.54 0 0 0-5.315 3.727 16.72 16.72 0 0 0-3.382 5.916 26.87 26.87 0 0 0 0 15.757 16.55 16.55 0 0 0 3.382 5.9 14.64 14.64 0 0 0 5.315 3.715 19.77 19.77 0 0 0 14.058 0 14.46 14.46 0 0 0 5.29-3.715 16.7 16.7 0 0 0 3.358-5.9 24.46 24.46 0 0 0 1.181-7.872m10.148 0a29.72 29.72 0 0 1-1.932 10.86 25.68 25.68 0 0 1-5.485 8.66 24.91 24.91 0 0 1-8.524 5.7 30.77 30.77 0 0 1-22.1 0 25.07 25.07 0 0 1-8.536-5.7c-2.407-2.484-4.286-5.43-5.523-8.66a31.17 31.17 0 0 1 0-21.734 25.57 25.57 0 0 1 5.523-8.647 25.07 25.07 0 0 1 8.536-5.708 28.75 28.75 0 0 1 11.033-2.041c2.576-.018 5.143.296 7.638.934 2.297.6 4.506 1.485 6.568 2.657a24.29 24.29 0 0 1 5.374 4.17 25.39 25.39 0 0 1 4.035 5.486 26.85 26.85 0 0 1 2.533 6.568 31.13 31.13 0 0 1 .86 7.454zm45.397 14.096a1.98 1.98 0 0 1 1.439.627l3.9 4.244a21.45 21.45 0 0 1-7.984 6.162 27.55 27.55 0 0 1-11.39 2.14 26.87 26.87 0 0 1-10.678-2.03 23.54 23.54 0 0 1-8.1-5.646 24.7 24.7 0 0 1-5.142-8.635c-1.224-3.523-1.83-7.23-1.795-10.96-.045-3.76.606-7.496 1.92-11.02a25.29 25.29 0 0 1 5.41-8.61 24.49 24.49 0 0 1 8.316-5.634c3.4-1.37 7.036-2.05 10.7-2a26.3 26.3 0 0 1 10.356 1.919 24.65 24.65 0 0 1 7.689 5.018l-3.32 4.613a2.99 2.99 0 0 1-.751.775 2.16 2.16 0 0 1-1.278.332 2.42 2.42 0 0 1-1.144-.32q-.6-.312-1.292-.775c-.468-.307-1-.64-1.624-1.008-.682-.403-1.398-.744-2.14-1.02a17.45 17.45 0 0 0-2.818-.775 19.68 19.68 0 0 0-3.714-.307 16.43 16.43 0 0 0-6.545 1.266 14.28 14.28 0 0 0-5.116 3.69 17.01 17.01 0 0 0-3.321 5.9 24.73 24.73 0 0 0-1.18 7.96c-.044 2.723.4 5.433 1.278 8.007a17.58 17.58 0 0 0 3.445 5.9c1.425 1.578 3.175 2.828 5.13 3.665a15.86 15.86 0 0 0 6.347 1.28c1.23.008 2.458-.066 3.677-.22a15.54 15.54 0 0 0 3.026-.7A13.49 13.49 0 0 0 190.7 171a16.24 16.24 0 0 0 2.447-1.858 3.5 3.5 0 0 1 .775-.542 1.88 1.88 0 0 1 .849-.2m52.913-14.093c.04-2.675-.36-5.34-1.18-7.885a16.88 16.88 0 0 0-3.358-5.916 14.29 14.29 0 0 0-5.3-3.727 19.78 19.78 0 0 0-14.06 0 14.55 14.55 0 0 0-5.314 3.727 16.72 16.72 0 0 0-3.383 5.916 26.9 26.9 0 0 0 0 15.757 16.55 16.55 0 0 0 3.383 5.9c1.472 1.62 3.288 2.9 5.314 3.715a19.78 19.78 0 0 0 14.06 0 14.58 14.58 0 0 0 5.3-3.715c1.5-1.716 2.654-3.724 3.358-5.9.82-2.542 1.22-5.2 1.18-7.872m10.148 0a29.76 29.76 0 0 1-1.932 10.86 25.68 25.68 0 0 1-5.485 8.66 24.91 24.91 0 0 1-8.524 5.7 30.77 30.77 0 0 1-22.1 0c-3.208-1.3-6.115-3.232-8.537-5.7a25.63 25.63 0 0 1-5.522-8.66 31.17 31.17 0 0 1 0-21.734 25.59 25.59 0 0 1 5.522-8.647 25.11 25.11 0 0 1 8.537-5.708 28.75 28.75 0 0 1 11.033-2.041c2.575-.018 5.142.295 7.637.934a26.79 26.79 0 0 1 6.57 2.657 24.27 24.27 0 0 1 5.374 4.17c1.587 1.635 2.943 3.484 4.035 5.486a26.9 26.9 0 0 1 2.533 6.568 31.22 31.22 0 0 1 .858 7.454z" fill="#fff"/></svg>