<svg xmlns="http://www.w3.org/2000/svg" width="25.299" height="615.147" xmlns:v="https://vecta.io/nano"><path d="M4.142 276.373a1.27 1.27 0 0 1 .392.333.74.74 0 0 1 .127.444c-.025.255-.127.496-.294.7a11.7 11.7 0 0 0-.643.989c-.265.454-.483.934-.65 1.432-.2.656-.3 1.342-.294 2.03-.01.67.092 1.337.306 1.972a4.2 4.2 0 0 0 .816 1.432c.336.38.753.68 1.22.875a3.87 3.87 0 0 0 1.505.293 2.8 2.8 0 0 0 1.72-.512 4.37 4.37 0 0 0 1.162-1.346 10.31 10.31 0 0 0 .839-1.9l.73-2.174.858-2.174c.304-.7.7-1.33 1.2-1.9a5.5 5.5 0 0 1 1.777-1.346c.814-.36 1.7-.534 2.6-.506a8.39 8.39 0 0 1 3.05.552c.93.355 1.77.904 2.47 1.6.726.745 1.3 1.632 1.66 2.605a9.64 9.64 0 0 1 .6 3.515 10.72 10.72 0 0 1-.868 4.383 10.34 10.34 0 0 1-2.358 3.365l-1.6-.966a1.26 1.26 0 0 1-.315-.34c-.083-.132-.133-.28-.133-.436a.99.99 0 0 1 .185-.512l.454-.644.6-.828a6.98 6.98 0 0 0 .6-1.065c.198-.434.352-.886.46-1.35a7.33 7.33 0 0 0 .179-1.708 6.37 6.37 0 0 0-.328-2.122c-.195-.584-.508-1.123-.92-1.582a4.02 4.02 0 0 0-1.426-.99 4.75 4.75 0 0 0-1.848-.345 3.1 3.1 0 0 0-1.833.505c-.5.356-.9.813-1.2 1.34a9.18 9.18 0 0 0-.816 1.9l-.7 2.174c-.233.737-.513 1.46-.824 2.174a7.03 7.03 0 0 1-1.208 1.9 5.53 5.53 0 0 1-1.852 1.334 6.61 6.61 0 0 1-2.756.512 6.54 6.54 0 0 1-2.536-.512 6.5 6.5 0 0 1-2.175-1.484 7.25 7.25 0 0 1-1.518-2.4 8.72 8.72 0 0 1-.57-3.266 10.44 10.44 0 0 1 .656-3.774 8.93 8.93 0 0 1 1.9-2.99zm18.206-15.616a6.88 6.88 0 0 0-.518-2.744 5.75 5.75 0 0 0-1.448-2.048 6.36 6.36 0 0 0-2.227-1.277 8.8 8.8 0 0 0-2.847-.437H.28v-3.33H15.3c1.353-.014 2.697.216 3.968.678 1.178.428 2.257 1.1 3.17 1.95.9.874 1.622 1.93 2.093 3.1.522 1.305.78 2.7.76 4.107a10.63 10.63 0 0 1-.759 4.107c-.473 1.17-1.186 2.228-2.093 3.106a9.16 9.16 0 0 1-3.17 1.955 11.3 11.3 0 0 1-3.968.685H.28v-3.33H15.3a8.8 8.8 0 0 0 2.848-.444 6.34 6.34 0 0 0 2.226-1.277 5.83 5.83 0 0 0 1.462-2.053c.36-.87.54-1.807.522-2.75M.28 237.62a13.7 13.7 0 0 1 .547-4.084 7.81 7.81 0 0 1 1.54-2.871 6.25 6.25 0 0 1 2.417-1.7 8.49 8.49 0 0 1 3.157-.557c1.082-.015 2.156.2 3.157.6a6.78 6.78 0 0 1 2.467 1.765 8.2 8.2 0 0 1 1.617 2.882 12.38 12.38 0 0 1 .575 3.963v3.967h9.25v3.332H.28zm12.82 0a7.73 7.73 0 0 0-.379-2.531 5.25 5.25 0 0 0-1.059-1.846 4.35 4.35 0 0 0-1.633-1.127 5.56 5.56 0 0 0-2.088-.38 4.75 4.75 0 0 0-3.693 1.455 6.41 6.41 0 0 0-1.328 4.429v3.967H13.1zM.28 216.895a13.7 13.7 0 0 1 .547-4.084 7.79 7.79 0 0 1 1.54-2.87 6.23 6.23 0 0 1 2.417-1.7 8.49 8.49 0 0 1 3.157-.559 8.24 8.24 0 0 1 3.157.6 6.8 6.8 0 0 1 2.467 1.767 8.22 8.22 0 0 1 1.617 2.88 12.38 12.38 0 0 1 .575 3.963v3.967h9.25v3.33H.28zm12.82 0a7.73 7.73 0 0 0-.379-2.531c-.223-.68-.583-1.3-1.06-1.846-.45-.496-1-.882-1.633-1.128a5.6 5.6 0 0 0-2.088-.378 4.75 4.75 0 0 0-3.693 1.454 6.41 6.41 0 0 0-1.328 4.429v3.967H13.1zm-.45-32.837c-1.4-.02-2.77.2-4.1.62-1.13.37-2.17.97-3.06 1.76a7.65 7.65 0 0 0-1.927 2.761 9.38 9.38 0 0 0-.673 3.624c-.017 1.235.212 2.46.673 3.606a7.72 7.72 0 0 0 1.927 2.768 8.58 8.58 0 0 0 3.059 1.77 12.58 12.58 0 0 0 4.091.621 12.52 12.52 0 0 0 4.084-.621 8.61 8.61 0 0 0 3.054-1.77c.837-.768 1.5-1.714 1.915-2.768.455-1.147.68-2.372.662-3.606.02-1.24-.206-2.47-.662-3.624-.423-1.053-1.077-1.996-1.915-2.76a8.69 8.69 0 0 0-3.054-1.76c-1.318-.432-2.698-.642-4.084-.62m0-3.433a14.3 14.3 0 0 1 5.1.88c1.485.55 2.843 1.394 4 2.485a11.07 11.07 0 0 1 2.6 3.855 13.02 13.02 0 0 1 .92 4.98 12.96 12.96 0 0 1-.921 4.969 11.1 11.1 0 0 1-2.6 3.848c-1.147 1.1-2.505 1.936-4 2.485a14.3 14.3 0 0 1-5.1.88 14.26 14.26 0 0 1-5.1-.88c-1.487-.55-2.848-1.396-4-2.485a11.18 11.18 0 0 1-2.618-3.848c-.637-1.578-.954-3.267-.932-4.97a12.92 12.92 0 0 1 .932-4.98c.592-1.455 1.484-2.77 2.618-3.855a11.75 11.75 0 0 1 4-2.485 14.26 14.26 0 0 1 5.1-.88zm12.356-23.056v2.968c.034.546-.24 1.065-.708 1.346l-8.834 6.42a1.9 1.9 0 0 0-.592.626c-.142.33-.206.688-.185 1.047v2.537h10.32v3.33H.28v-6.988c-.023-1.367.137-2.73.478-4.055a7.74 7.74 0 0 1 1.369-2.825 5.5 5.5 0 0 1 2.17-1.644 7.23 7.23 0 0 1 2.833-.535 7.12 7.12 0 0 1 2.451.414 6.46 6.46 0 0 1 2.048 1.2c.62.545 1.14 1.192 1.54 1.915.445.803.77 1.667.967 2.564.26-.444.62-.82 1.053-1.1zm-12.75 11.423c.014-.868-.104-1.732-.35-2.564a5.26 5.26 0 0 0-1-1.864 4.15 4.15 0 0 0-1.548-1.129 5.06 5.06 0 0 0-1.984-.38 3.95 3.95 0 0 0-3.33 1.45c-.84 1.288-1.233 2.815-1.123 4.348v3.658h9.336zM3.092 137.5v8.006h21.914v3.33H3.092v8.024H.28V137.5zm1.05-25.137a1.27 1.27 0 0 1 .392.335c.1.13.133.285.127.442-.024.255-.127.496-.294.7a10.3 10.3 0 0 0-.643 1 7.63 7.63 0 0 0-.65 1.432 6.16 6.16 0 0 0-.294 2.029c-.012.67.092 1.338.306 1.974a4.21 4.21 0 0 0 .816 1.432 3.37 3.37 0 0 0 1.22.873 3.82 3.82 0 0 0 1.505.293 2.8 2.8 0 0 0 1.72-.511 4.4 4.4 0 0 0 1.162-1.346 10.39 10.39 0 0 0 .84-1.9l.73-2.174.858-2.174a7.59 7.59 0 0 1 1.2-1.9c.492-.57 1.098-1.024 1.777-1.345a5.91 5.91 0 0 1 2.589-.508 8.38 8.38 0 0 1 3.049.552c.93.356 1.77.906 2.47 1.612a7.59 7.59 0 0 1 1.66 2.605 9.63 9.63 0 0 1 .6 3.513 10.71 10.71 0 0 1-.868 4.383 10.3 10.3 0 0 1-2.358 3.366l-1.6-.968a1.3 1.3 0 0 1-.315-.338.78.78 0 0 1-.133-.437 1 1 0 0 1 .185-.513l.454-.645.6-.827a7 7 0 0 0 .6-1.064 7.05 7.05 0 0 0 .459-1.353 7.33 7.33 0 0 0 .179-1.708 6.37 6.37 0 0 0-.328-2.122 4.52 4.52 0 0 0-.919-1.58 4.03 4.03 0 0 0-1.426-.99 4.78 4.78 0 0 0-1.848-.345 3.08 3.08 0 0 0-1.833.507 4.22 4.22 0 0 0-1.2 1.339 9.23 9.23 0 0 0-.816 1.9l-.7 2.174a23.06 23.06 0 0 1-.824 2.174 7 7 0 0 1-1.208 1.9 5.54 5.54 0 0 1-1.852 1.336c-.872.364-1.8.54-2.756.5a6.58 6.58 0 0 1-2.536-.511 6.54 6.54 0 0 1-2.175-1.484 7.25 7.25 0 0 1-1.518-2.4c-.397-1.043-.6-2.152-.57-3.268a10.42 10.42 0 0 1 .656-3.772 8.92 8.92 0 0 1 1.9-2.992zm11.01-15.357h9.853v3.347h-9.853L.28 109.412v-2.933a1.08 1.08 0 0 1 .217-.707 1.95 1.95 0 0 1 .559-.449l9.612-5.66 1.133-.57a10.03 10.03 0 0 1 1.059-.449l-1.06-.43-1.133-.535-9.612-5.642a1.88 1.88 0 0 1-.535-.431 1.04 1.04 0 0 1-.241-.708v-2.95zm-11.01-24.9a1.28 1.28 0 0 1 .392.333.74.74 0 0 1 .127.444c-.024.255-.127.496-.294.7a11.47 11.47 0 0 0-.643.99c-.266.454-.484.934-.65 1.432a6.45 6.45 0 0 0-.294 2.03 5.86 5.86 0 0 0 .306 1.972 4.2 4.2 0 0 0 .816 1.432 3.36 3.36 0 0 0 1.221.875 3.85 3.85 0 0 0 1.505.294c.614.022 1.218-.157 1.72-.5a4.39 4.39 0 0 0 1.162-1.348 10.39 10.39 0 0 0 .84-1.9l.73-2.174.858-2.176a7.65 7.65 0 0 1 1.2-1.9c.494-.565 1.1-1.023 1.777-1.346.814-.36 1.7-.533 2.6-.505a8.38 8.38 0 0 1 3.049.552 7.01 7.01 0 0 1 2.471 1.61 7.57 7.57 0 0 1 1.659 2.605 9.64 9.64 0 0 1 .6 3.515 10.72 10.72 0 0 1-.868 4.383 10.35 10.35 0 0 1-2.358 3.365l-1.6-.966a1.27 1.27 0 0 1-.315-.34.78.78 0 0 1-.133-.436 1 1 0 0 1 .185-.513 9.83 9.83 0 0 1 .454-.643l.6-.828a7.01 7.01 0 0 0 .6-1.065 7 7 0 0 0 .459-1.351 7.43 7.43 0 0 0 .18-1.708 6.37 6.37 0 0 0-.328-2.122c-.195-.584-.508-1.123-.92-1.582a4 4 0 0 0-1.426-.989 4.79 4.79 0 0 0-1.848-.345 3.1 3.1 0 0 0-1.833.506 4.24 4.24 0 0 0-1.2 1.341 9.23 9.23 0 0 0-.816 1.9l-.7 2.174c-.233.737-.513 1.46-.824 2.174-.297.694-.705 1.336-1.208 1.9a5.51 5.51 0 0 1-1.852 1.334 6.61 6.61 0 0 1-2.756.512 6.54 6.54 0 0 1-2.536-.512c-.82-.34-1.56-.846-2.175-1.484a7.24 7.24 0 0 1-1.518-2.4 8.73 8.73 0 0 1-.57-3.268 10.44 10.44 0 0 1 .656-3.774 9.07 9.07 0 0 1 1.9-3zm-1.05-22.793v8.006h21.914v3.33H3.092v8.024H.28v-19.36zm19.188-18.91l2.726.018v15.236H.28V30.42h2.726v11.9h8.213v-9.63h2.623v9.628h8.438zM.28 0h24.727v2.933H6.837a12.1 12.1 0 0 1-.776-.03l-.845-.057 15.46 8.5a1.28 1.28 0 0 1 .777 1.208v.483a1.29 1.29 0 0 1-.777 1.208l-15.53 8.662c.56-.065 1.126-.098 1.7-.1h18.17v2.933H.28v-2.468a2.14 2.14 0 0 1 .086-.69.99.99 0 0 1 .484-.466l15.218-8.54.863-.4.914-.368-.92-.362a7.79 7.79 0 0 1-.874-.414L.852 3.626a.91.91 0 0 1-.484-.461 2.21 2.21 0 0 1-.086-.7z" fill="#5c401f"/><path fill="#a1ba1a" d="M10.162 320.25h4.97v294.898h-4.97z"/></svg>