<svg id="logo" xmlns="http://www.w3.org/2000/svg" width="216.178" height="150.315" viewBox="0 0 216.178 150.315">
  <path id="Path_45" data-name="Path 45" d="M123.122,92.056s5.858-1.2,7.715-8.926c0,0,.825-3.826,2.587-5.813-8.415-3.554-15.847,4.673-11.451,13.088,0,0,.08-6.622,5.844-9.889a14.105,14.105,0,0,0-4.695,11.539" transform="translate(-28.245 -68.047)" fill="#005c2b" fill-rule="evenodd"/>
  <path id="Path_46" data-name="Path 46" d="M133.436,105.723s-4.746-.823-5.867-7.246a1.872,1.872,0,0,1,1.18.044s-1.56-1.969-1.279-6.63a1.524,1.524,0,0,1,1.281.146,13.278,13.278,0,0,1,.6-6.245,1.352,1.352,0,0,1,.759.5,7.608,7.608,0,0,1,4.459-5.536,12.259,12.259,0,0,0,.2,5.554,2.731,2.731,0,0,1,.7-.5,16.987,16.987,0,0,0,1.3,2.683,8.983,8.983,0,0,1,.837,3.223,3.286,3.286,0,0,1,1.018-.27,8.8,8.8,0,0,1-.061,7.4,2.871,2.871,0,0,1,1.116-.278s.27,3.824-4.357,6.722a14.394,14.394,0,0,0,.639-2.839c.564-1.4,1.1-2.493,1.1-2.493a6.083,6.083,0,0,0-.975,1.265,19.176,19.176,0,0,0-.077-3.493,18.631,18.631,0,0,1,.751-2.054,4.915,4.915,0,0,0-.893,1.056,18.751,18.751,0,0,0-2.45-6.575A25.3,25.3,0,0,1,134.9,97.1a4.678,4.678,0,0,0-1.233-1.052,10.224,10.224,0,0,1,1.278,2,18.49,18.49,0,0,1-.433,4.609,4.831,4.831,0,0,0-1.608-1.481,11.485,11.485,0,0,1,1.361,2.263,18.2,18.2,0,0,1-.828,2.285" transform="translate(-26.824 -66.631)" fill="#005c2b" fill-rule="evenodd"/>
  <path id="Path_47" data-name="Path 47" d="M127.65,102.472s-5.273.729-8.761-5.274c0,0-1.648-3-3.636-4.162,6.268-5.536,14.617-.772,12.965,7.69,0,0-1.706-5.6-7.411-6.65a11.675,11.675,0,0,1,6.844,8.4" transform="translate(-29.382 -63.362)" fill="#005c2b" fill-rule="evenodd"/>
  <path id="Path_48" data-name="Path 48" d="M117.97,92.491s-4.188-2.079-4.294-8.237a12.408,12.408,0,0,0-.97-4.874c6.894-.971,11.092,6.687,6.4,12.1a9.852,9.852,0,0,0-2.732-8.581,11.306,11.306,0,0,1,1.6,9.587" transform="translate(-29.917 -67.113)" fill="#005c2b" fill-rule="evenodd"/>
  <path id="Path_49" data-name="Path 49" d="M152.208,98.542a10.881,10.881,0,0,0-7.116-8.473,12.314,12.314,0,0,1-4.783-3.014c-3.538,8.43,3,16.569,10.425,12.566a10.206,10.206,0,0,1-8.049-6.61,11.547,11.547,0,0,0,9.523,5.531" transform="translate(-24.328 -64.551)" fill="#005c2b" fill-rule="evenodd"/>
  <path id="Path_50" data-name="Path 50" d="M108.857,101.884a7.708,7.708,0,0,0,8.557,1.18,9.576,9.576,0,0,1,4.459-.893c-1.84-7.357-9.873-8.664-12.609-1.824a7.762,7.762,0,0,1,8.245-.535,8.874,8.874,0,0,0-8.651,2.071" transform="translate(-30.725 -61.64)" fill="#005c2b" fill-rule="evenodd"/>
  <path id="Path_51" data-name="Path 51" d="M95.915,94.241a6.092,6.092,0,0,0,6.764.932,7.566,7.566,0,0,1,3.525-.705c-1.454-5.816-7.8-6.848-9.968-1.442a6.139,6.139,0,0,1,6.517-.423,7.017,7.017,0,0,0-6.838,1.637" transform="translate(-33.443 -63.747)" fill="#005c2b" fill-rule="evenodd"/>
  <path id="Path_52" data-name="Path 52" d="M109.335,101s-3.774-1.012-4.287-6.271a1.522,1.522,0,0,1,.947.122s-1.137-1.7-.628-5.437a1.24,1.24,0,0,1,1.025.211,10.666,10.666,0,0,1,.865-4.988,1.122,1.122,0,0,1,.581.458,6.023,6.023,0,0,1,3.93-4.134,9.906,9.906,0,0,0-.177,4.491,2.141,2.141,0,0,1,.6-.349,14.08,14.08,0,0,0,.886,2.257,7.331,7.331,0,0,1,.478,2.66,2.631,2.631,0,0,1,.837-.144,7.12,7.12,0,0,1-.5,5.962,2.31,2.31,0,0,1,.916-.142s-.016,3.1-3.92,5.1a11.5,11.5,0,0,0,.687-2.241c.54-1.084,1.038-1.927,1.038-1.927a4.825,4.825,0,0,0-.863.947,15.5,15.5,0,0,0,.15-2.82,14.937,14.937,0,0,1,.73-1.6,3.872,3.872,0,0,0-.784.785,15.346,15.346,0,0,0-1.574-5.478,20.578,20.578,0,0,1,.766,5.7,3.857,3.857,0,0,0-.929-.938,8.371,8.371,0,0,1,.909,1.7,14.846,14.846,0,0,1-.629,3.682,4.013,4.013,0,0,0-1.205-1.312,9.516,9.516,0,0,1,.96,1.923,14.483,14.483,0,0,1-.807,1.781" transform="translate(-31.525 -66.562)" fill="#005c2b" fill-rule="evenodd"/>
  <path id="Path_53" data-name="Path 53" d="M151.94,85.926a6.054,6.054,0,0,1-6.6,2.857,1.932,1.932,0,0,1,.358-.966s-1.785.748-4.906-.778a1.54,1.54,0,0,1,.456-1.023,8.531,8.531,0,0,1-4.12-2.231,1.149,1.149,0,0,1,.553-.491,6.274,6.274,0,0,1-2.564-5.236,7.73,7.73,0,0,0,3.868,1.374,2.625,2.625,0,0,1-.146-.721,11.051,11.051,0,0,0,2.2-.335,5.557,5.557,0,0,1,2.445.2,3.419,3.419,0,0,1,.1-.92,5.585,5.585,0,0,1,5.066,2.1,3,3,0,0,1,.119-1s2.7.837,3.406,5.479a9.836,9.836,0,0,0-1.773-1.318c-.8-.854-1.406-1.6-1.406-1.6a5.131,5.131,0,0,0,.6,1.16,11.988,11.988,0,0,0-2.42-.9,13.61,13.61,0,0,1-1.2-1.193,4.242,4.242,0,0,0,.477,1.034,11.817,11.817,0,0,0-5.192.209,15.641,15.641,0,0,1,5.173.7,3.7,3.7,0,0,0-1.064.732,6.9,6.9,0,0,1,1.723-.507,11.92,11.92,0,0,1,3.044,1.637,3.789,3.789,0,0,0-1.463.923,7.677,7.677,0,0,1,1.931-.5,13.066,13.066,0,0,1,1.34,1.321" transform="translate(-25.212 -67.672)" fill="#005c2b" fill-rule="evenodd"/>
  <path id="Path_54" data-name="Path 54" d="M149.967,88.938a6.021,6.021,0,0,1,6.674-2.646,1.929,1.929,0,0,1-.384.955s1.8-.69,4.883.935a1.533,1.533,0,0,1-.483,1.007,8.584,8.584,0,0,1,4.058,2.362,1.151,1.151,0,0,1-.565.474,6.313,6.313,0,0,1,2.424,5.315,7.759,7.759,0,0,0-3.83-1.5,2.636,2.636,0,0,1,.126.726,10.99,10.99,0,0,0-2.211.263,5.565,5.565,0,0,1-2.438-.278,3.383,3.383,0,0,1-.121.917,5.608,5.608,0,0,1-5.008-2.265,2.976,2.976,0,0,1-.145,1s-2.675-.923-3.259-5.586a9.912,9.912,0,0,0,1.736,1.374c.779.879,1.362,1.648,1.362,1.648a5.224,5.224,0,0,0-.566-1.18,11.935,11.935,0,0,0,2.393.982,13.684,13.684,0,0,1,1.17,1.232,4.294,4.294,0,0,0-.449-1.048,11.828,11.828,0,0,0,5.194-.043,15.7,15.7,0,0,1-5.151-.867,3.693,3.693,0,0,0,1.083-.7,6.872,6.872,0,0,1-1.736.451,11.982,11.982,0,0,1-3-1.733,3.739,3.739,0,0,0,1.486-.877,7.644,7.644,0,0,1-1.942.44,13.157,13.157,0,0,1-1.3-1.363" transform="translate(-22.151 -64.86)" fill="#005c2b" fill-rule="evenodd"/>
  <path id="Path_55" data-name="Path 55" d="M109.957,100.174a7.948,7.948,0,0,1-4.783,7.251,2.248,2.248,0,0,1-.2-1.177s-1.307,1.935-5.187,2.579a1.831,1.831,0,0,1-.133-1.3,9.347,9.347,0,0,1-5.243.639,1.514,1.514,0,0,1,.259-.85,6.266,6.266,0,0,1-5.424-3.325,8.7,8.7,0,0,0,4.517-1.3,2.63,2.63,0,0,1-.547-.6,14.215,14.215,0,0,0,1.944-1.821A6.856,6.856,0,0,1,97.643,98.8a3.727,3.727,0,0,1-.425-.956,6.39,6.39,0,0,1,6.087-1.406,3.237,3.237,0,0,1-.449-1.051s3.083-1.024,6.375,2.99a10.231,10.231,0,0,0-2.455-.072c-1.257-.282-2.263-.6-2.263-.6a5.077,5.077,0,0,0,1.231.717,13.572,13.572,0,0,0-2.849.768,13.854,13.854,0,0,1-1.834-.338,4.181,4.181,0,0,0,1.043.677,14.9,14.9,0,0,0-4.909,3.73,19.028,19.028,0,0,1,5.4-2.836,4.92,4.92,0,0,0-.618,1.43,9.08,9.08,0,0,1,1.383-1.66,12.921,12.921,0,0,1,3.867-.484,5.035,5.035,0,0,0-.9,1.888,10.179,10.179,0,0,1,1.586-1.8,13.3,13.3,0,0,1,2.039.37" transform="translate(-34.842 -61.837)" fill="#005c2b" fill-rule="evenodd"/>
  <path id="Path_56" data-name="Path 56" d="M108.839,133.566c-.207-2.932,3.678-10.682,3.062-14.864l-.031-.208c-.115-.79-1.274-.628-2.017-.495-1.9.337-3.755.874-4.773,1.917a19.57,19.57,0,0,1-.479,7.452,175.794,175.794,0,0,1-6.125,21.74,68.674,68.674,0,0,1-3.735,8.257c7.332-.3,10.788-9.961,13.26-16.322.7-1.789,1.348-3.607,2.12-5.357.935-2.122,5.739-12.344,7.663-12.687,1.6-.285-.361,5.379-.542,6.009-.6,2.07-.986,4.113-1.56,6.122-.563,1.965-1.049,4.056-1.485,6.18-.363,1.776-1.792,5.514,1.182,4.984l.757-.134c3.73-.664,4.056-2.883,5.052-5.745a65.449,65.449,0,0,1,2.9-7.267c1.239-2.513,5.509-12.249,8.1-12.709l.092.624c.294,2-2.268,9.6-2.732,12-.346,1.778-3.8,11.389.045,10.705l1.327-.235a10.512,10.512,0,0,0,3.488-1.649c.121-.229.1-3.525.185-4.269.333-2.917,1.047-4.944,1.529-7.432.675-3.477,3.582-11.52,3.062-15.047a2.527,2.527,0,0,0-3.21-1.994c-5.989,1.065-11.88,17.579-13.3,17.967.771-2.873,1.333-5.7,2.1-8.637.656-2.513,1.471-7.6-2.443-6.9-6.093,1.084-12.135,17.333-13.489,18" transform="translate(-33.689 -55.957)" fill="#005c2b" fill-rule="evenodd"/>
  <path id="Path_57" data-name="Path 57" d="M159.512,105.341a7.726,7.726,0,0,0,1.868-5.685l-.029-.193c-.064-.446-.207-.557-.612-.486l-1.054.186c-4.666.831-8.106,6.938-10.486,9.942a48.906,48.906,0,0,0-3.788,6.039c-.433.867-3.049,6.068-3.355,6.382l4.254-17.71-.2-.057c-1.28-1.508-6.42.5-7.705,1.568l.492,1.889c.52,1.991-3.818,16.635-4.362,19.44-.58,2.989-4.7,17.251-4.413,19.194.133.9,2.355.769,3.334.595,4.854-.863,3.807-1.933,4.171-5.735a30.841,30.841,0,0,1,1.69-7.532,63.6,63.6,0,0,1,2.885-6.756c.53-1.105,1.036-2.132,1.539-3.215.1-.221.7-1.39.829-1.579.736-1.08.577.093.669.72l1.251,8.5c.365,2.481.736,4.931,1.255,7.311.445,2.046.8,5.406,2.731,5.063l3.163-.563a2.993,2.993,0,0,0,2.614-1.853c-1.874-2.961-2.161-3.3-3.129-7.767-.68-3.133-1.285-6.285-1.771-9.6l-1.394-9.466c-.329-2.243,4.709-8.964,7.446-9.451.846-.15,1.289.512,2.1.817" transform="translate(-26.262 -60.621)" fill="#005c2b" fill-rule="evenodd"/>
  <path id="Path_58" data-name="Path 58" d="M206.71,110.3c-.191-2.715,1.644-5.148.818-8.8a5.1,5.1,0,0,0-1.745-.112c-1.636.291-4.468.971-4.222,2.651.84,5.707-3.383,21.286-4.917,26.636-1.208,4.214-2.156,8.507-3.371,12.777-.691,2.424-3.042,9.357-4.562,11.651,5.663-1.007,7.808-5.621,9.806-10.4a61.064,61.064,0,0,0,2.133-6.852c.605-2.174,1-5.313,1.762-7.146a11.186,11.186,0,0,0,3.678.192l1.124-.2c8.413-1.5,14.424-16.867,12.993-26.593l-.091-.617c-.863-5.86-5.078-4.517-7.858-1.685a23.334,23.334,0,0,0-3.079,4.1c-.559.9-1.773,4.06-2.47,4.4m-3.538,17.733c-.264-1.792,2.766-10.517,3.446-12.352.961-2.6,3.774-9.2,6.1-10.251.448.168.774.047.869.69l.183,1.234c.829,5.637-3.983,20.558-9.135,21.473C204.119,128.919,203.272,128.7,203.172,128.032Z" transform="translate(-13.958 -60.482)" fill="#005c2b" fill-rule="evenodd"/>
  <path id="Path_59" data-name="Path 59" d="M54.3,118.241l.057.387a9.527,9.527,0,0,0,1.39,3.32c-1.619,6.03-2.777,12.264-4.39,18.358-.1.364-.2.766-.321,1.2l6.113.684c.2-.742.375-1.473.511-2.174.286-1.47,1.117-5.921,2.543-6.173l1.229-.219c6.444-1.145,4.462,3.369,5.87,3.119l.175-.032c1.515-.27,2.931-4.6,2.662-6.42l-.028-.193c-.1-.677-1.223-.555-2.558-.317l-7.272,1.3c-.443.078-.127-.486.421-3.151.437-2.131.957-4.024,1.448-6.188.681-3,.733-3.239,4.355-3.883,7.464-1.328,5,6.247,6.648,5.953,1.523-.27,3.787-7.351,3.494-9.342l-.029-.193c-.19-1.29-8.829.579-10.511.878l-7.03,1.25c-1.18.21-4.938.758-4.778,1.841" transform="translate(-42.866 -55.712)" fill="#005c2b" fill-rule="evenodd"/>
  <path id="Path_60" data-name="Path 60" d="M70.858,129.1c1.794-.319,2.851-2.644,5.567-3.127l1.137-.2a2.324,2.324,0,0,1,2.8,1.853l.062.416c.624,4.242-5.458,19.136-8.574,19.69l-.379.068c-2.583.459.667-8.322.915-8.841a12.54,12.54,0,0,1,2.555-3.492c.88-.89,3.4-1.735,3.252-2.755-.07-.48-.224-.6-.659-.524l-1.706.3c-7.249,1.289-13.234,9.166-12.1,16.9.364,2.47,2.053,4.336,4.275,3.941l.379-.068c5.237-.931,7.875-8.758,8.939-9.283-.1,1.637-1.16,4.009-.909,5.719l.092.624c.2,1.347,1.33,1.474,2.519,1.262a13.248,13.248,0,0,0,3.326-1.41c1.428-.841.511-1.583.26-3.288-.693-4.708,4.64-16.033,3.879-21.206l-.03-.209c-.526-3.566-3.625-4.911-6.862-4.335l-1.326.235c-3.29.585-7.994,3.81-7.539,6.9Z" transform="translate(-40.23 -53.339)" fill="#005c2b" fill-rule="evenodd"/>
  <path id="Path_61" data-name="Path 61" d="M191.528,123.956l.093.635c.467,3.171-1.157,7.369-3.975,7.869a3.485,3.485,0,0,1-3.994-2.98l-.03-.21c-.555-3.767,2.589-6.559,2.467-7.385-.071-.484-.1-.234-.317-.811-4.422.676-8.411,3.231-7.633,8.52l.156,1.058c1.061,7.211,15.009,4.64,17.922-1.668,6.115-13.238-6.114-13.365-6.844-18.317l-.123-.846a4.294,4.294,0,0,1,3.257-4.7l1.539-.274a.821.821,0,0,1,.864.5c.157,1.077-.934,3.054-.695,4.681a2.906,2.906,0,0,0,3.516,2.414l.768-.137c.463-.082.515-.443.87-.806-.394-2.674,1.615-6.465,1.349-8.271-.175-1.191-5.579-.96-7.208-.67-5.262.935-10.374,4.709-10.408,9.684-.045,6.6,7.739,7.062,8.424,11.722" transform="translate(-16.198 -59.511)" fill="#005c2b" fill-rule="evenodd"/>
  <path id="Path_62" data-name="Path 62" d="M91.573,133.149c-.157-2.215,2.869-9.567,2.482-12.2-.272-1.854-6.1.318-7.011,1.246a18.021,18.021,0,0,1-.242,6.284c-1.216,6.06-2.934,12.07-4.586,18.081a11.955,11.955,0,0,0-.564,3.735,1.173,1.173,0,0,0,1.48.8l1.136-.2c3.711-.66,3.857-2.456,4.662-5.317a65.5,65.5,0,0,1,2.606-7.131c1.01-2.438,4.991-11.9,7.355-12.379.088,1.245-.656,2.146-.426,3.709l.154,1.042c.276,1.88,2.393,2.416,4.028,2.276.558-.572,1.377-6.087,1.754-7.44.335-1.206,2.038-6.436,1.908-7.316-.092-.617-.811-.712-1.26-.632-7.306,1.3-12.084,14.747-13.478,15.434" transform="translate(-36.442 -54.435)" fill="#005c2b" fill-rule="evenodd"/>
  <path id="Path_63" data-name="Path 63" d="M171.819,136.162c5.393-.959,4.41-1.628,4.743-6.14a49.258,49.258,0,0,1,1.827-8.266c.68-2.784,3.828-14.227,3.468-16.681-2-.15-6.34.3-6.965,2.325,1.05,2.815-1.791,11.351-2.467,14.111-.57,2.332-1.066,4.5-1.683,6.885-.586,2.265-.852,4.8-1.419,6.908.607.885,1.152,1.1,2.5.858" transform="translate(-18.029 -58.609)" fill="#005c2b" fill-rule="evenodd"/>
  <path id="Path_64" data-name="Path 64" d="M176.268,101.39l.063.422a2.427,2.427,0,0,0,2.906,2.3l.385-.068c2.151-.382,3.676-3.2,3.325-5.583a2.565,2.565,0,0,0-2.714-2.338l-.77.136c-1.636.291-3.5,3.051-3.2,5.128" transform="translate(-16.577 -61.565)" fill="#005c2b" fill-rule="evenodd"/>
  <path id="Path_65" data-name="Path 65" d="M58.679,134.928l-6.056-.678c-1.166,4.226-2.137,8.515-3.353,12.783a72.153,72.153,0,0,1-4.986,12.739c4.911-.217,8.536-6.146,10.722-11.373a66.5,66.5,0,0,0,2.333-7.492c.488-1.752.849-4.076,1.341-5.979" transform="translate(-44.284 -48.967)" fill="#005c2b" fill-rule="evenodd"/>
  <path id="Path_66" data-name="Path 66" d="M161.861,121.733c-.156-2.215,2.87-9.567,2.483-12.2-.272-1.853-6.1.318-7.011,1.248a18.014,18.014,0,0,1-.242,6.283c-1.216,6.06-2.935,12.072-4.587,18.083a11.966,11.966,0,0,0-.563,3.734,1.172,1.172,0,0,0,1.479.8l1.137-.2c3.711-.66,3.857-2.456,4.662-5.317a65.493,65.493,0,0,1,2.606-7.131c1.01-2.437,4.99-11.9,7.355-12.378.088,1.245-.656,2.146-.426,3.709l.152,1.042c.277,1.88,2.393,2.414,4.029,2.275.558-.571,1.377-6.086,1.755-7.438.335-1.208,2.038-6.437,1.907-7.317-.091-.617-.811-.71-1.26-.631-7.306,1.3-12.083,14.747-13.478,15.433" transform="translate(-21.683 -58.204)" fill="#005c2b" fill-rule="evenodd"/>
  <path id="Path_67" data-name="Path 67" d="M149.364,176.3c-.169.035-.34.065-.511.1a54.513,54.513,0,0,1-12.406,1.014,55.711,55.711,0,0,1-38.861-17.806c-.171-.181-.338-.364-.506-.548.264.028.557.063.874.1,5.913.722,20.884,3.295,40.8,12.077q5.1,2.249,10.612,5.063" transform="translate(-33.198 -40.775)" fill="#a1ba1a" fill-rule="evenodd"/>
  <path id="Path_68" data-name="Path 68" d="M160.351,173.451l-.38.164a54.442,54.442,0,0,1-6.251,2.233c-26.874-13.862-50.847-16.4-56.843-16.836q-.6-.668-1.174-1.357l-.219-.261c6.531.24,39.116,2.112,64.867,16.057" transform="translate(-33.533 -41.325)" fill="#a1ba1a" fill-rule="evenodd"/>
  <path id="Path_69" data-name="Path 69" d="M170.753,168.331l-.3.209a56.218,56.218,0,0,1-6.061,3.717c-30.726-14.586-62.927-15-69.167-14.937q-.5-.622-.987-1.261l-.2-.263c6.81-.415,43.413-1.846,76.711,12.536" transform="translate(-33.836 -41.933)" fill="#a1ba1a" fill-rule="evenodd"/>
  <path id="Path_70" data-name="Path 70" d="M179.857,161.4l-.177.19a57.849,57.849,0,0,1-5.854,5.47c-35.225-13.923-73.356-11.46-79.959-10.9q-.356-.485-.7-.978l-.188-.267c6.759-1.127,45.076-6.579,86.881,6.486" transform="translate(-34.06 -42.832)" fill="#a1ba1a" fill-rule="evenodd"/>
  <path id="Path_71" data-name="Path 71" d="M179.1,148.444l-.04.084a59.649,59.649,0,0,1-8.246,12.592,189.558,189.558,0,0,0-27.1-6.288l-.324-.052c4.829-1.058,21.529-4.61,35.708-6.336" transform="translate(-23.474 -44.28)" fill="#009140" fill-rule="evenodd"/>
  <path id="Path_72" data-name="Path 72" d="M191.922,144.112a2.364,2.364,0,0,0-2.553-1.264s.413-5.077-5.254-4.013c0,0-3.675-4.827-7.3.338,0,0-3.289-.443-3.666,3.339a3.774,3.774,0,0,0-5.421,2.178,1.291,1.291,0,0,0-1.7-.008c-1.026.688-.226-.1-.226-.1s-.327-4.862-5.505-3.2a4.616,4.616,0,0,0-5.069-.694s-2.316.885-2.315,4.247a2.231,2.231,0,0,0-2.12,2.092,2.967,2.967,0,0,0-3.959,2.321,2.067,2.067,0,0,0-2.486.2,4.026,4.026,0,0,0-6.091-1.979s-1.378-5.886-7.028-2.676a3.585,3.585,0,0,0-4.36.58s-3.185-5.667-8.041-.428c0,0-4.539-2.6-6.322,2.631a2.921,2.921,0,0,0-3.319,3.23,2.925,2.925,0,0,0-2.874,2.465s-4.92-2.593-8.489,3.984a212.6,212.6,0,0,1,47.9.287c6.092-1.222,28.271-5.613,44.1-7.921q1.171-2.732,2.084-5.6" transform="translate(-33.04 -48.13)" fill="#006630" fill-rule="evenodd"/>
  <path id="Path_73" data-name="Path 73" d="M99.453,200.211a70.808,70.808,0,0,1-6.639-7.037,74.954,74.954,0,0,1-11.659-19.765.746.746,0,0,1,.334-.946.632.632,0,0,1,.86.367,73.516,73.516,0,0,0,11.429,19.384,69.694,69.694,0,0,0,6.5,6.889c.9.855.029,1.9-.824,1.108m108.269-47.787a.667.667,0,0,1,.721-.627.7.7,0,0,1,.57.791,79.01,79.01,0,0,1-4.827,19.964,76.087,76.087,0,0,1-4.879,10.282c-.617.99-1.658.134-1.1-.76a74.632,74.632,0,0,0,4.784-10.084A77.453,77.453,0,0,0,207.722,152.423ZM77.754,131.568a.662.662,0,0,1-.75.587.712.712,0,0,1-.535-.825,75.326,75.326,0,0,1,23.648-44.572A63,63,0,0,1,144.487,70.17a62,62,0,0,1,28.691,8.13,69.3,69.3,0,0,1,22.744,21.049.765.765,0,0,1-.127,1,.614.614,0,0,1-.912-.14,67.958,67.958,0,0,0-22.3-20.642A60.808,60.808,0,0,0,144.449,71.6a61.779,61.779,0,0,0-43.51,16.263A73.847,73.847,0,0,0,77.754,131.568Z" transform="translate(-37.528 -70.137)" fill="#661a30"/>
  <path id="Path_74" data-name="Path 74" d="M193.921,160.223a1.168,1.168,0,0,1,.115.112.321.321,0,0,1,.065.1.2.2,0,0,1,.016.092.15.15,0,0,1-.028.074l-1.871,2.632a.347.347,0,0,1-.19.132.3.3,0,0,1-.271-.094l-4.447-3.819a.351.351,0,0,1-.149-.267.4.4,0,0,1,.071-.234l1.848-2.6a.135.135,0,0,1,.06-.048.128.128,0,0,1,.081,0,.419.419,0,0,1,.106.047.935.935,0,0,1,.137.1,1.161,1.161,0,0,1,.114.114.5.5,0,0,1,.065.1.162.162,0,0,1,.016.084.143.143,0,0,1-.028.076l-1.523,2.143,1.565,1.344,1.306-1.838a.122.122,0,0,1,.063-.045.158.158,0,0,1,.08-.007.292.292,0,0,1,.105.047,1.176,1.176,0,0,1,.246.212.327.327,0,0,1,.063.1.172.172,0,0,1,.01.084.176.176,0,0,1-.029.074l-1.307,1.837,1.783,1.532,1.544-2.173a.135.135,0,0,1,.059-.047.166.166,0,0,1,.082-.009.261.261,0,0,1,.107.045,1.061,1.061,0,0,1,.136.1m-7.1,2.292a1.114,1.114,0,0,0-.583-.317.886.886,0,0,0-.644.2,1.614,1.614,0,0,0-.219.194c-.074.077-.166.186-.275.323l-.466.589,1.609,1.536.538-.681a2.037,2.037,0,0,0,.316-.533,1.348,1.348,0,0,0,.1-.5,1.041,1.041,0,0,0-.1-.44,1.29,1.29,0,0,0-.272-.37m4.185,2.155a.166.166,0,0,1,.042.061.129.129,0,0,1,0,.089.612.612,0,0,1-.068.134,2.273,2.273,0,0,1-.145.2,1.93,1.93,0,0,1-.145.166.518.518,0,0,1-.108.084.171.171,0,0,1-.1.019.369.369,0,0,1-.105-.032l-1.505-.593q-.261-.1-.494-.16a1.388,1.388,0,0,0-.449-.048.993.993,0,0,0-.413.124,1.3,1.3,0,0,0-.39.348l-.369.467,2.034,1.942a.161.161,0,0,1,.038.068.2.2,0,0,1-.01.09.893.893,0,0,1-.063.126,1.4,1.4,0,0,1-.123.178,1.288,1.288,0,0,1-.143.158.642.642,0,0,1-.106.086.12.12,0,0,1-.08.024.123.123,0,0,1-.064-.033l-4.422-4.226a.358.358,0,0,1-.135-.275.409.409,0,0,1,.082-.23l.883-1.116c.105-.133.194-.239.27-.322l.207-.218a2.4,2.4,0,0,1,.578-.391,1.38,1.38,0,0,1,.571-.142,1.326,1.326,0,0,1,.552.109,1.784,1.784,0,0,1,.514.353,1.876,1.876,0,0,1,.373.483,1.589,1.589,0,0,1,.174.527,1.981,1.981,0,0,1,0,.561,2.937,2.937,0,0,1-.15.591,1.092,1.092,0,0,1,.317-.11,1.348,1.348,0,0,1,.346-.015,2.252,2.252,0,0,1,.391.071c.139.037.289.086.454.148l1.424.535c.117.047.2.082.244.105A.5.5,0,0,1,191.008,164.669Zm-6.683,3a5.167,5.167,0,0,0-.762-.717,2.221,2.221,0,0,0-.786-.394,1.414,1.414,0,0,0-.8.035,1.991,1.991,0,0,0-.794.552,2.116,2.116,0,0,0-.519.865,2.067,2.067,0,0,0-.053.893,2.657,2.657,0,0,0,.316.887,4.937,4.937,0,0,0,.6.837,5.44,5.44,0,0,0,.78.741,2.245,2.245,0,0,0,.787.4,1.358,1.358,0,0,0,.79-.033,2,2,0,0,0,.8-.559,2.128,2.128,0,0,0,.525-.871,2.005,2.005,0,0,0,.052-.9,2.747,2.747,0,0,0-.327-.889,5.2,5.2,0,0,0-.606-.845m.6-.722a5.4,5.4,0,0,1,.831,1.233,3.435,3.435,0,0,1,.34,1.241,2.82,2.82,0,0,1-.188,1.216,3.572,3.572,0,0,1-.749,1.151,3.256,3.256,0,0,1-1.037.773,1.977,1.977,0,0,1-1.048.169,2.48,2.48,0,0,1-1.064-.41,5.847,5.847,0,0,1-1.9-2.179,3.338,3.338,0,0,1-.33-1.238,2.868,2.868,0,0,1,.191-1.213,3.54,3.54,0,0,1,.749-1.149,3.218,3.218,0,0,1,1.022-.765,2.026,2.026,0,0,1,1.048-.173,2.439,2.439,0,0,1,1.062.4A5.1,5.1,0,0,1,184.922,166.943Zm-6.031,2.007a1.076,1.076,0,0,1,.092.144.361.361,0,0,1,.045.116.181.181,0,0,1,0,.089.142.142,0,0,1-.044.068L177.6,170.6l3.452,4.688a.132.132,0,0,1,0,.158.69.69,0,0,1-.082.114,1.538,1.538,0,0,1-.149.152,1.335,1.335,0,0,1-.165.128.769.769,0,0,1-.12.067.119.119,0,0,1-.084.008.123.123,0,0,1-.058-.045l-3.452-4.688-1.383,1.232a.133.133,0,0,1-.069.032.124.124,0,0,1-.079-.016.477.477,0,0,1-.094-.073,1.026,1.026,0,0,1-.11-.129.969.969,0,0,1-.093-.148.689.689,0,0,1-.048-.12.175.175,0,0,1,0-.09.159.159,0,0,1,.044-.066l3.419-3.044a.132.132,0,0,1,.068-.033.165.165,0,0,1,.082.017.366.366,0,0,1,.1.077,1.211,1.211,0,0,1,.111.133m-1.572,7.168a2.149,2.149,0,0,1,.333.809,2.051,2.051,0,0,1-.023.819,2.208,2.208,0,0,1-.34.766,2.97,2.97,0,0,1-.612.657,2.936,2.936,0,0,1-.509.331,2.858,2.858,0,0,1-.469.2,2.342,2.342,0,0,1-.382.089.89.89,0,0,1-.246,0,.359.359,0,0,1-.156-.08.947.947,0,0,1-.165-.2,1.605,1.605,0,0,1-.1-.165.512.512,0,0,1-.042-.12.146.146,0,0,1,0-.086.136.136,0,0,1,.045-.06.369.369,0,0,1,.2-.051,2.833,2.833,0,0,0,.367-.045,3.069,3.069,0,0,0,.49-.142,2.093,2.093,0,0,0,.566-.337,1.72,1.72,0,0,0,.363-.39,1.361,1.361,0,0,0,.195-.436,1.073,1.073,0,0,0,.008-.456,1.228,1.228,0,0,0-.19-.454.847.847,0,0,0-.369-.329,1.136,1.136,0,0,0-.459-.09,2.493,2.493,0,0,0-.524.061c-.185.039-.375.078-.57.121a5.136,5.136,0,0,1-.584.093,2.006,2.006,0,0,1-.58-.024,1.551,1.551,0,0,1-.546-.218,1.7,1.7,0,0,1-.49-.51,1.928,1.928,0,0,1-.3-.721,1.789,1.789,0,0,1,.018-.722,2.055,2.055,0,0,1,.307-.68,2.744,2.744,0,0,1,.553-.593,2.53,2.53,0,0,1,.365-.241,2.715,2.715,0,0,1,.382-.172,1.9,1.9,0,0,1,.35-.093.733.733,0,0,1,.229-.017.377.377,0,0,1,.093.025.272.272,0,0,1,.059.047.692.692,0,0,1,.07.079c.027.033.057.077.093.132a1.516,1.516,0,0,1,.087.144.952.952,0,0,1,.051.117.2.2,0,0,1,.006.088.117.117,0,0,1-.038.06.376.376,0,0,1-.177.048c-.09.008-.194.024-.318.043a2.322,2.322,0,0,0-.409.117,1.593,1.593,0,0,0-.456.266,1.406,1.406,0,0,0-.33.362,1.084,1.084,0,0,0-.15.375.893.893,0,0,0,.01.371,1.04,1.04,0,0,0,.149.346.835.835,0,0,0,.367.325,1.124,1.124,0,0,0,.462.089,2.436,2.436,0,0,0,.53-.059c.189-.039.379-.08.574-.122s.391-.073.588-.1a2.017,2.017,0,0,1,.581.015,1.492,1.492,0,0,1,.546.214,1.661,1.661,0,0,1,.486.5m-8.39,3.863a3.88,3.88,0,0,0-.547-.873,2.106,2.106,0,0,0-.7-.551,1.74,1.74,0,0,0-.842-.152,2.545,2.545,0,0,0-1.035.359l-.762.427,2.235,4.822.771-.431a3.017,3.017,0,0,0,.842-.66,1.9,1.9,0,0,0,.408-.8,2.436,2.436,0,0,0,.016-.976,4.69,4.69,0,0,0-.382-1.165m.773-.475a5.213,5.213,0,0,1,.463,1.511,3.145,3.145,0,0,1-.086,1.3,2.829,2.829,0,0,1-.607,1.085,4.321,4.321,0,0,1-1.156.894l-1.193.67a.322.322,0,0,1-.224.032q-.123-.026-.211-.212l-2.562-5.528a.375.375,0,0,1-.031-.311.361.361,0,0,1,.155-.18l1.277-.716a3.75,3.75,0,0,1,1.333-.486,2.313,2.313,0,0,1,1.127.126,2.581,2.581,0,0,1,.955.654A4.267,4.267,0,0,1,169.7,179.506Zm-6.292,3.4a5.589,5.589,0,0,0-.463-.98,2.431,2.431,0,0,0-.594-.688,1.452,1.452,0,0,0-.75-.3,1.849,1.849,0,0,0-.923.185,1.9,1.9,0,0,0-.777.588,1.979,1.979,0,0,0-.353.806,2.755,2.755,0,0,0-.01.952,5.291,5.291,0,0,0,.267,1.022,5.982,5.982,0,0,0,.471,1.007,2.458,2.458,0,0,0,.593.7,1.424,1.424,0,0,0,.744.3,1.859,1.859,0,0,0,.93-.19,1.847,1.847,0,0,0,1.14-1.406,2.909,2.909,0,0,0,0-.96,5.616,5.616,0,0,0-.275-1.031m.8-.426a5.818,5.818,0,0,1,.35,1.486,3.478,3.478,0,0,1-.108,1.29,2.649,2.649,0,0,1-.588,1.051,3.2,3.2,0,0,1-1.088.758,3,3,0,0,1-1.223.29,2.014,2.014,0,0,1-1.03-.275,2.725,2.725,0,0,1-.846-.819,5.829,5.829,0,0,1-.674-1.341,5.717,5.717,0,0,1-.341-1.459,3.388,3.388,0,0,1,.115-1.284,2.7,2.7,0,0,1,.59-1.047,3.191,3.191,0,0,1,1.087-.757,2.958,2.958,0,0,1,1.209-.287,2.04,2.04,0,0,1,1.03.27,2.7,2.7,0,0,1,.851.806A5.714,5.714,0,0,1,164.211,182.482Zm-7.054,2.86a5.807,5.807,0,0,0-.367-1.027,2.513,2.513,0,0,0-.526-.753,1.484,1.484,0,0,0-.718-.381,1.838,1.838,0,0,0-.937.077,1.863,1.863,0,0,0-.828.5,1.92,1.92,0,0,0-.428.761,2.754,2.754,0,0,0-.1.946,5.381,5.381,0,0,0,.169,1.047,6.085,6.085,0,0,0,.373,1.056,2.524,2.524,0,0,0,.523.761,1.452,1.452,0,0,0,.711.379,1.849,1.849,0,0,0,.944-.082,1.791,1.791,0,0,0,1.267-1.268,2.845,2.845,0,0,0,.092-.954,5.594,5.594,0,0,0-.175-1.059m.836-.33a5.884,5.884,0,0,1,.207,1.518,3.458,3.458,0,0,1-.23,1.27,2.583,2.583,0,0,1-.685.978,3.107,3.107,0,0,1-1.153.629,2.972,2.972,0,0,1-1.245.148,2.046,2.046,0,0,1-1-.391,2.809,2.809,0,0,1-.764-.913,6.043,6.043,0,0,1-.542-1.411,5.727,5.727,0,0,1-.2-1.49,3.363,3.363,0,0,1,.236-1.264,2.624,2.624,0,0,1,.687-.974,3.113,3.113,0,0,1,1.153-.628,2.95,2.95,0,0,1,1.228-.148,2.092,2.092,0,0,1,1,.388,2.788,2.788,0,0,1,.77.9A5.842,5.842,0,0,1,157.993,185.012Zm-6.073,5.237a.17.17,0,0,1,0,.078.141.141,0,0,1-.058.064.724.724,0,0,1-.122.059,1.2,1.2,0,0,1-.194.056,1.3,1.3,0,0,1-.2.029.786.786,0,0,1-.131,0,.134.134,0,0,1-.076-.037.148.148,0,0,1-.031-.069l-.536-3.029-2.827.6.536,3.03a.142.142,0,0,1-.007.079.131.131,0,0,1-.058.065.7.7,0,0,1-.122.057,1.256,1.256,0,0,1-.2.057,1.131,1.131,0,0,1-.2.027.621.621,0,0,1-.135,0,.107.107,0,0,1-.075-.036.14.14,0,0,1-.034-.069l-1.158-6.555a.139.139,0,0,1,.006-.077.13.13,0,0,1,.058-.065.684.684,0,0,1,.125-.059,1.277,1.277,0,0,1,.194-.056,1.23,1.23,0,0,1,.2-.028.7.7,0,0,1,.133,0,.124.124,0,0,1,.076.037.134.134,0,0,1,.033.069l.483,2.734,2.826-.6-.483-2.734a.144.144,0,0,1,.006-.079.151.151,0,0,1,.058-.065.88.88,0,0,1,.12-.057,1.293,1.293,0,0,1,.2-.057,1.164,1.164,0,0,1,.2-.027.7.7,0,0,1,.133,0,.133.133,0,0,1,.076.036.159.159,0,0,1,.031.07Zm-7.607-3.626a1.329,1.329,0,0,0-.219-.673.939.939,0,0,0-.588-.351,1.479,1.479,0,0,0-.279-.027c-.1,0-.238.007-.4.023l-.707.068L142.3,188l.818-.079a1.706,1.706,0,0,0,.565-.142,1.145,1.145,0,0,0,.382-.286.984.984,0,0,0,.207-.394,1.418,1.418,0,0,0,.037-.474m1.649,4.746a.18.18,0,0,1-.008.077.109.109,0,0,1-.059.059.518.518,0,0,1-.134.047,1.9,1.9,0,0,1-.231.032,1.36,1.36,0,0,1-.208.009.419.419,0,0,1-.132-.023.168.168,0,0,1-.081-.06.371.371,0,0,1-.056-.1l-.709-1.576c-.082-.18-.167-.342-.253-.491a1.665,1.665,0,0,0-.293-.378,1.036,1.036,0,0,0-.375-.226,1.173,1.173,0,0,0-.5-.047l-.56.053.235,2.95a.138.138,0,0,1-.016.077.155.155,0,0,1-.064.059.578.578,0,0,1-.125.043,1.221,1.221,0,0,1-.2.035,1.388,1.388,0,0,1-.2.005.661.661,0,0,1-.129-.02.115.115,0,0,1-.073-.044.146.146,0,0,1-.027-.073l-.511-6.416a.368.368,0,0,1,.077-.3.328.328,0,0,1,.2-.1l1.339-.129c.16-.016.292-.025.4-.027l.287,0a2.268,2.268,0,0,1,.662.158,1.491,1.491,0,0,1,.5.335,1.593,1.593,0,0,1,.328.5,2.124,2.124,0,0,1,.148.646,2.089,2.089,0,0,1-.038.632,1.558,1.558,0,0,1-.207.511,1.745,1.745,0,0,1-.355.4,2.47,2.47,0,0,1-.482.31,1.144,1.144,0,0,1,.3.164,1.469,1.469,0,0,1,.258.253,2.6,2.6,0,0,1,.237.35c.076.132.154.283.232.452l.686,1.473c.056.124.093.212.11.262A.6.6,0,0,1,145.962,191.369Zm-6.035-1.946a3.475,3.475,0,0,1-.206,1.123,2.332,2.332,0,0,1-.508.823,1.989,1.989,0,0,1-.778.492,2.792,2.792,0,0,1-1.026.138,2.656,2.656,0,0,1-.949-.2,2.037,2.037,0,0,1-.722-.52,2.185,2.185,0,0,1-.448-.833,3.447,3.447,0,0,1-.131-1.133l.137-4.315a.151.151,0,0,1,.022-.074.133.133,0,0,1,.07-.049.737.737,0,0,1,.128-.025,1.169,1.169,0,0,1,.206-.008,1.433,1.433,0,0,1,.2.023.8.8,0,0,1,.129.036.132.132,0,0,1,.063.055.158.158,0,0,1,.018.076l-.134,4.2a3.087,3.087,0,0,0,.08.849,1.633,1.633,0,0,0,.293.611,1.319,1.319,0,0,0,.476.379,1.66,1.66,0,0,0,.64.145,1.722,1.722,0,0,0,.657-.092,1.235,1.235,0,0,0,.495-.338,1.624,1.624,0,0,0,.322-.573,2.834,2.834,0,0,0,.131-.811l.136-4.251a.136.136,0,0,1,.021-.074.126.126,0,0,1,.07-.048.63.63,0,0,1,.131-.027,1.328,1.328,0,0,1,.2-.007,1.09,1.09,0,0,1,.2.023.555.555,0,0,1,.126.036.128.128,0,0,1,.067.053.13.13,0,0,1,.021.076Zm-6.9-1.079a6.066,6.066,0,0,0,.045-1.1,2.755,2.755,0,0,0-.2-.922,1.658,1.658,0,0,0-.515-.669,1.9,1.9,0,0,0-.885-.349,1.63,1.63,0,0,0-1.612.588,2.591,2.591,0,0,0-.442.818,5.286,5.286,0,0,0-.232,1.032,6.308,6.308,0,0,0-.051,1.131,2.744,2.744,0,0,0,.2.93,1.6,1.6,0,0,0,.511.664,1.9,1.9,0,0,0,.892.347,1.75,1.75,0,0,0,.949-.081,1.677,1.677,0,0,0,.679-.511,2.677,2.677,0,0,0,.436-.83,5.612,5.612,0,0,0,.232-1.046m.886.073a5.819,5.819,0,0,1-.373,1.478,3.23,3.23,0,0,1-.68,1.059,2.3,2.3,0,0,1-.987.587,2.93,2.93,0,0,1-1.286.059,3.018,3.018,0,0,1-1.192-.422,2.277,2.277,0,0,1-.767-.8,3.079,3.079,0,0,1-.361-1.175,6.268,6.268,0,0,1,.028-1.532,5.661,5.661,0,0,1,.367-1.451,3.107,3.107,0,0,1,.684-1.048,2.333,2.333,0,0,1,.989-.581,2.921,2.921,0,0,1,1.285-.06,3.043,3.043,0,0,1,1.177.415,2.335,2.335,0,0,1,.77.8,3.057,3.057,0,0,1,.369,1.164A6.122,6.122,0,0,1,133.909,188.418Zm-7.723.37a1.485,1.485,0,0,0,0-.556,1.053,1.053,0,0,0-.19-.446,1.193,1.193,0,0,0-.384-.333,2.3,2.3,0,0,0-.633-.219l-.987-.211-.426,2.406,1.2.257a1.553,1.553,0,0,0,.508.032,1.063,1.063,0,0,0,.411-.14.963.963,0,0,0,.316-.307,1.272,1.272,0,0,0,.18-.483m.174-3.187a1.584,1.584,0,0,0,.017-.462.882.882,0,0,0-.137-.383.921.921,0,0,0-.312-.289,1.9,1.9,0,0,0-.559-.2l-.853-.184-.392,2.212.941.2a1.2,1.2,0,0,0,.536.017.9.9,0,0,0,.369-.177.975.975,0,0,0,.254-.323A1.593,1.593,0,0,0,126.36,185.6Zm.7,3.32a2.2,2.2,0,0,1-.179.579,1.79,1.79,0,0,1-.3.443,1.6,1.6,0,0,1-.392.311,1.869,1.869,0,0,1-.474.184,2.24,2.24,0,0,1-.538.056,3.088,3.088,0,0,1-.63-.076l-1.625-.347a.352.352,0,0,1-.194-.126.375.375,0,0,1-.047-.309l1.077-6.09a.351.351,0,0,1,.15-.267.324.324,0,0,1,.221-.037l1.413.3a3.111,3.111,0,0,1,.891.309,1.678,1.678,0,0,1,.532.466,1.479,1.479,0,0,1,.261.62,2.141,2.141,0,0,1-.007.754,1.926,1.926,0,0,1-.137.454,1.544,1.544,0,0,1-.227.375,1.289,1.289,0,0,1-.318.279,1.355,1.355,0,0,1-.4.168,1.49,1.49,0,0,1,.442.294,1.561,1.561,0,0,1,.323.438,1.818,1.818,0,0,1,.172.564A2.085,2.085,0,0,1,127.063,188.92Zm-6.291.443a.182.182,0,0,1-.036.067.128.128,0,0,1-.08.028.615.615,0,0,1-.132-.009,1.215,1.215,0,0,1-.195-.045,1.231,1.231,0,0,1-.194-.077.667.667,0,0,1-.114-.068.146.146,0,0,1-.053-.071.157.157,0,0,1,0-.079l.774-2.966-2.767-.873-.774,2.966a.141.141,0,0,1-.038.066.123.123,0,0,1-.079.029.664.664,0,0,1-.133-.011,1.214,1.214,0,0,1-.2-.047,1.352,1.352,0,0,1-.189-.074.621.621,0,0,1-.119-.071.133.133,0,0,1-.053-.07.144.144,0,0,1,0-.079l1.675-6.417a.121.121,0,0,1,.038-.066.113.113,0,0,1,.079-.029.673.673,0,0,1,.134.011,1.091,1.091,0,0,1,.2.047,1.184,1.184,0,0,1,.191.074.693.693,0,0,1,.117.071.129.129,0,0,1,.052.069.156.156,0,0,1,0,.079l-.7,2.678,2.767.873.7-2.678a.119.119,0,0,1,.117-.1.83.83,0,0,1,.129.009,1.176,1.176,0,0,1,.2.048,1.264,1.264,0,0,1,.188.075.811.811,0,0,1,.117.069.129.129,0,0,1,.051.148Zm-4.1-7.5a1.4,1.4,0,0,1-.07.162.5.5,0,0,1-.071.108.139.139,0,0,1-.07.048.108.108,0,0,1-.065-.008.441.441,0,0,1-.146-.174,3.765,3.765,0,0,0-.264-.36,3.482,3.482,0,0,0-.434-.435,2.616,2.616,0,0,0-.668-.408,2.053,2.053,0,0,0-.944-.193,1.878,1.878,0,0,0-.851.249,2.4,2.4,0,0,0-.71.634,3.627,3.627,0,0,0-.52.964,3.835,3.835,0,0,0-.247,1.165,2.766,2.766,0,0,0,.137,1,2.179,2.179,0,0,0,.477.791,2.458,2.458,0,0,0,1.355.714,2.024,2.024,0,0,0,.6.013l.69-1.878-1.36-.6a.151.151,0,0,1-.085-.137.76.76,0,0,1,.058-.281,1.13,1.13,0,0,1,.069-.157.386.386,0,0,1,.07-.1.173.173,0,0,1,.071-.041.146.146,0,0,1,.075.012l1.862.827a.341.341,0,0,1,.094.063.353.353,0,0,1,.067.1.284.284,0,0,1,.024.137.586.586,0,0,1-.036.17l-.9,2.457a.533.533,0,0,1-.125.2.344.344,0,0,1-.232.09,3.154,3.154,0,0,1-.4.005,3.2,3.2,0,0,1-.484-.047,3.772,3.772,0,0,1-.482-.109,3.847,3.847,0,0,1-.46-.168,3.522,3.522,0,0,1-1.129-.773,2.958,2.958,0,0,1-.663-1.063,3.4,3.4,0,0,1-.186-1.276,4.617,4.617,0,0,1,.3-1.422,4.362,4.362,0,0,1,.721-1.3,3.044,3.044,0,0,1,.985-.8,2.655,2.655,0,0,1,1.169-.271,3.112,3.112,0,0,1,1.279.286,3.349,3.349,0,0,1,.607.346,4.752,4.752,0,0,1,.467.384,2.377,2.377,0,0,1,.316.36,1.46,1.46,0,0,1,.154.262.4.4,0,0,1,.027.186.949.949,0,0,1-.067.255m-8.136,2.611a.121.121,0,0,1-.051.056.115.115,0,0,1-.082.011.756.756,0,0,1-.128-.04,1.19,1.19,0,0,1-.184-.092,1.245,1.245,0,0,1-.171-.116.745.745,0,0,1-.1-.1.136.136,0,0,1-.023-.157l2.851-5.9a.123.123,0,0,1,.052-.056.14.14,0,0,1,.086-.007.813.813,0,0,1,.131.04,1.489,1.489,0,0,1,.177.086,1.23,1.23,0,0,1,.172.118.648.648,0,0,1,.1.094.144.144,0,0,1,.039.08.142.142,0,0,1-.015.077ZM106.368,183a1.041,1.041,0,0,1-.086.141.277.277,0,0,1-.083.086.143.143,0,0,1-.081.029.116.116,0,0,1-.07-.02l-2.631-1.669a.373.373,0,0,1-.146-.188.379.379,0,0,1,.047-.31l2.822-5.373c.063-.12.136-.186.22-.2a.311.311,0,0,1,.22.044l2.6,1.651a.137.137,0,0,1,.052.059.156.156,0,0,1,.012.088.578.578,0,0,1-.025.124,1.428,1.428,0,0,1-.073.162,1.11,1.11,0,0,1-.087.14.449.449,0,0,1-.082.085.133.133,0,0,1-.074.029.123.123,0,0,1-.073-.02l-2.142-1.359-.992,1.889,1.837,1.167a.122.122,0,0,1,.051.061.214.214,0,0,1,.016.086.35.35,0,0,1-.027.121,1.123,1.123,0,0,1-.071.158,1.045,1.045,0,0,1-.085.138.327.327,0,0,1-.079.081.121.121,0,0,1-.074.023.131.131,0,0,1-.071-.021l-1.837-1.167-1.133,2.155,2.173,1.379a.131.131,0,0,1,.051.057.221.221,0,0,1,.019.089.323.323,0,0,1-.025.121,1.36,1.36,0,0,1-.074.161m-4.71-2.886a.4.4,0,0,1-.125.128.285.285,0,0,1-.133.045.27.27,0,0,1-.129-.017.414.414,0,0,1-.115-.064l-.218-.174a.955.955,0,0,1-.163-.166.585.585,0,0,1-.09-.206,1.154,1.154,0,0,1-.024-.282,3.713,3.713,0,0,1,.031-.4l.5-4.489c.025-.234.054-.475.088-.724s.071-.491.11-.72l-.008-.007q-.2.319-.409.649l-.426.65-2.244,3.4a.127.127,0,0,1-.053.047.118.118,0,0,1-.083,0,.609.609,0,0,1-.115-.055,1.066,1.066,0,0,1-.165-.113,1.208,1.208,0,0,1-.149-.137.514.514,0,0,1-.079-.1.138.138,0,0,1-.023-.085.142.142,0,0,1,.023-.072l3.431-5.192a.326.326,0,0,1,.25-.18.35.35,0,0,1,.238.078l.324.258a1.043,1.043,0,0,1,.178.176.541.541,0,0,1,.091.182.846.846,0,0,1,.028.235c0,.089-.01.2-.024.323l-.391,3.463c-.022.212-.046.416-.069.617s-.048.4-.076.588-.05.382-.075.568-.05.374-.076.559l0,0c.145-.233.3-.472.462-.721s.321-.488.472-.717l2.018-3.053a.119.119,0,0,1,.052-.045.143.143,0,0,1,.083,0,.373.373,0,0,1,.117.051,1.55,1.55,0,0,1,.167.12,1.412,1.412,0,0,1,.144.129.408.408,0,0,1,.08.106.165.165,0,0,1,.021.086.131.131,0,0,1-.021.069Z" transform="translate(-33.081 -41.687)" fill="#661a30"/>
  <path id="Path_75" data-name="Path 75" d="M219.658,96.9h1.237l1,3.15a2.561,2.561,0,0,1,.071.327c.021.128.036.269.047.422.01-.162.024-.307.042-.432a1.767,1.767,0,0,1,.073-.317l1.032-3.15h1.218v4.535H223.6V98.083c0-.132,0-.266.012-.4s.022-.27.04-.4c-.031.141-.062.27-.09.388s-.053.21-.07.269l-1.154,3.5h-.727l-1.129-3.469c-.029-.1-.057-.2-.082-.322s-.05-.241-.071-.37c.021.261.032.45.038.567s.011.2.012.247v3.347h-.72Zm-3.519,0h3v.7h-1.1v3.835h-.816V97.6h-1.087Z" transform="translate(-8.199 -61.299)" fill="#005c2b"/>
</svg>
