<svg xmlns="http://www.w3.org/2000/svg" width="377.976" height="1676" viewBox="0 0 377.976 1676">
  <g id="PROCESSS" transform="translate(3766 -6507.969)">
    <path id="Path_98" data-name="Path 98" d="M799.752,276.813a2.519,2.519,0,1,0-4.081-2.955,56.2,56.2,0,0,1-14.754,13.91,125.664,125.664,0,0,0,11.452-21.109,2.52,2.52,0,0,0-4.655-1.931A128.423,128.423,0,0,1,771.5,292.236a16.949,16.949,0,0,0-19.764,13.129c-1.78,8.342-3.254,16.118-4.378,23.109a2.521,2.521,0,0,0,4.978.8c.562-3.5,1.214-7.208,1.952-11.086,10.669,2.118,10.223,2.086,10.669,2.086a2.523,2.523,0,0,0,.493-4.993l-10.2-2.038q.671-3.341,1.412-6.827c2.712-12.683,21.124-12.561,23.3.525l-6.844-1.711a2.519,2.519,0,0,0-1.22,4.888l7.8,1.954c-.506,1.838-4.231,11.8-5.673,15.511l-11.108-2.221a2.52,2.52,0,0,0-.988,4.942l10.21,2.042c-1.5,3.717,3.334,5.189,4.532,2.236,2.488-6.142,5.028-12.9,7.548-20.085a17.109,17.109,0,0,0-5.964-19.318,62.008,62.008,0,0,0,21.486-18.365" transform="translate(-4493.157 6679.698)" fill="#007a33" fill-rule="evenodd"/>
    <path id="Path_99" data-name="Path 99" d="M740.476,273.67h42.836a2.52,2.52,0,0,0,0-5.04H740.476a2.52,2.52,0,1,0,0,5.04" transform="translate(-4503.956 6685.894)" fill="#007a33" fill-rule="evenodd"/>
    <path id="Path_104" data-name="Path 104" d="M752.361,307.443a2.519,2.519,0,1,1-2.52-2.52,2.519,2.519,0,0,1,2.52,2.52" transform="translate(-4493.163 6728.772)" fill="#007a33" fill-rule="evenodd"/>
    <path id="Path_105" data-name="Path 105" d="M757.045,303.929a2.52,2.52,0,1,1-2.52-2.518,2.519,2.519,0,0,1,2.52,2.518" transform="translate(-4487.768 6724.623)" fill="#007a33" fill-rule="evenodd"/>
    <path id="Path_106" data-name="Path 106" d="M779.29,303.929a2.52,2.52,0,1,1-2.52-2.518,2.521,2.521,0,0,1,2.52,2.518" transform="translate(-4461.066 6724.623)" fill="#007a33" fill-rule="evenodd"/>
    <path id="Path_107" data-name="Path 107" d="M752.361,254.757a2.519,2.519,0,1,1-2.52-2.518,2.52,2.52,0,0,1,2.52,2.518" transform="translate(-4493.163 6666.53)" fill="#007a33" fill-rule="evenodd"/>
    <path id="Path_109" data-name="Path 109" d="M775.776,307.443a2.519,2.519,0,1,1-2.518-2.52,2.519,2.519,0,0,1,2.518,2.52" transform="translate(-4465.217 6728.772)" fill="#007a33" fill-rule="evenodd"/>
    <path id="Path_112" data-name="Path 112" d="M740.476,257.279h10.079a2.519,2.519,0,1,0,0-5.038l-10.079,0a2.52,2.52,0,0,0,0,5.041" transform="translate(-4503.956 6666.528)" fill="#007a33" fill-rule="evenodd"/>
    <path id="Path_114" data-name="Path 114" d="M133.955,292.71a3.276,3.276,0,0,0,.911-.131l.216-.06a3.309,3.309,0,1,0-1.777-6.376l-.261.074a3.31,3.31,0,0,0,.911,6.492" transform="translate(-3683.493 6256.848)" fill="#5c401f" fill-rule="evenodd"/>
    <path id="Path_141" data-name="Path 141" d="M338.385,430.024l-.028-.02a3.06,3.06,0,1,0-3.721,4.859l.028.023a3.061,3.061,0,1,0,3.721-4.862" transform="translate(-4082.921 7340.553)" fill="#ba821a" fill-rule="evenodd"/>
    <path id="Path_142" data-name="Path 142" d="M338.385,420.164l-.028-.02A3.06,3.06,0,1,0,334.635,425l.028.023a3.061,3.061,0,0,0,3.721-4.862" transform="translate(-4082.921 7324.974)" fill="#ba821a" fill-rule="evenodd"/>
    <path id="Path_143" data-name="Path 143" d="M338.385,410.3l-.028-.02a3.06,3.06,0,1,0-3.721,4.859l.028.023a3.061,3.061,0,0,0,3.721-4.862" transform="translate(-4082.921 7309.395)" fill="#ba821a" fill-rule="evenodd"/>
    <path id="Path_148" data-name="Path 148" d="M345.984,424.446h-.041a3.061,3.061,0,0,0,0,6.122h.041a3.061,3.061,0,0,0,0-6.122" transform="translate(-4068.319 7332.77)" fill="#ba821a" fill-rule="evenodd"/>
    <path id="Path_149" data-name="Path 149" d="M337.672,397.062a3.059,3.059,0,1,0,2.164.9,3.094,3.094,0,0,0-2.164-.9" transform="translate(-4081.107 7289.501)" fill="#ba821a" fill-rule="evenodd"/>
    <path id="Path_151" data-name="Path 151" d="M358.307,387.761h.041a3.06,3.06,0,1,0,0-6.119l-.041,0a3.061,3.061,0,1,0,0,6.122" transform="translate(-4048.225 7265.133)" fill="#ba821a" fill-rule="evenodd"/>
    <path id="Path_206" data-name="Path 206" d="M2.353,0C-.165,5.032-.219,9.382.192,14.25,3.165,11.16,4.119,5.342,2.353,0Z" transform="matrix(0.574, -0.819, 0.819, 0.574, -3703.7, 7184.052)" fill="#a1ba1a"/>
    <path id="Path_208" data-name="Path 208" d="M1.156,12.383c2.682-1.388,2.353-4.095,2.626-6.076C4.07,4.2,7.335.921,3.884.054c-2.339-.588-2.276,3.8-2.84,5.986C.555,7.943-1.1,10.283,1.156,12.383Z" transform="matrix(0.574, -0.819, 0.819, 0.574, -3718.537, 7170.389)" fill="#a1ba1a"/>
    <path id="Path_209" data-name="Path 209" d="M9.724,0C4.274,1.42,2.867,5.477.279,8.21a1.106,1.106,0,0,0,.585,1.8,2.333,2.333,0,0,0,2.013-.5C4.956,6.68,7.881,4.449,9.724,0Z" transform="matrix(0.574, -0.819, 0.819, 0.574, -3749.108, 7116.479)" fill="#a1ba1a"/>
    <path id="Path_210" data-name="Path 210" d="M5.878,0C2.461,4.229,1.576,7.889.227,11.313c-.376.951-.387,1.905.762,2.3A1.338,1.338,0,0,0,2.7,12.545C3.665,8.853,6.492,5.665,5.878,0Z" transform="matrix(0.574, -0.819, 0.819, 0.574, -3733.031, 7152.785)" fill="#a1ba1a"/>
    <path id="Path_211" data-name="Path 211" d="M0,6.678A1.178,1.178,0,0,0,1.57,7.809,6.189,6.189,0,0,0,4.036,6.473c2.275-2.106,6.169-2.146,7.238-5.7C11.317.635,10.3-.1,10.1.012,6.826,1.838,3.6,3.745.384,5.681.142,5.827.119,6.334,0,6.678Z" transform="matrix(0.574, -0.819, 0.819, 0.574, -3752.465, 7075.685)" fill="#a1ba1a"/>
    <path id="Path_212" data-name="Path 212" d="M10.039,0C5.254.922,2.376,4.192,0,8.116,4.477,6.91,7.455,3.691,10.039,0Z" transform="matrix(0.574, -0.819, 0.819, 0.574, -3751.941, 7096.413)" fill="#a1ba1a"/>
    <path id="Path_213" data-name="Path 213" d="M0,9.835c.567.695.829,1.319,1.2,1.4a1.675,1.675,0,0,0,1.44-.5c1.788-2.866,3.485-5.789,5.2-8.7A1.293,1.293,0,0,0,7.427.1a1.583,1.583,0,0,0-1.5.2C3.9,3.43,1.974,6.625,0,9.835Z" transform="matrix(0.574, -0.819, 0.819, 0.574, -3742.144, 7136.03)" fill="#a1ba1a"/>
    <path id="Path_209-2" data-name="Path 209" d="M11.435,0C5.026,1.67,3.372,6.441.328,9.655a1.3,1.3,0,0,0,.687,2.12,2.744,2.744,0,0,0,2.367-.593C5.828,7.855,9.267,5.231,11.435,0Z" transform="matrix(0.574, -0.819, 0.819, 0.574, -3725.459, 7870.811)" fill="#a1ba1a"/>
    <path id="Path_210-2" data-name="Path 210" d="M6.912,0C2.895,4.973,1.853,9.277.267,13.3c-.442,1.118-.455,2.24.9,2.7a1.574,1.574,0,0,0,2.009-1.252C4.31,10.411,7.634,6.661,6.912,0Z" transform="matrix(0.574, -0.819, 0.819, 0.574, -3705.71, 7912.888)" fill="#a1ba1a"/>
    <path id="Path_211-2" data-name="Path 211" d="M0,7.853a1.385,1.385,0,0,0,1.846,1.33,7.277,7.277,0,0,0,2.9-1.57C7.422,5.136,12,5.089,13.258.908c.05-.161-1.141-1.028-1.38-.894C8.027,2.161,4.228,4.4.451,6.681.167,6.852.14,7.449,0,7.853Z" transform="matrix(0.574, -0.819, 0.819, 0.574, -3729.407, 7818.653)" fill="#a1ba1a"/>
    <path id="Path_212-2" data-name="Path 212" d="M11.8,0C6.178,1.084,2.794,4.93,0,9.544,5.265,8.126,8.766,4.34,11.8,0Z" transform="matrix(0.574, -0.819, 0.819, 0.574, -3728.791, 7843.023)" fill="#a1ba1a"/>
    <path id="Path_213-2" data-name="Path 213" d="M0,11.566c.667.817.975,1.552,1.414,1.641a1.969,1.969,0,0,0,1.693-.586c2.1-3.37,4.1-6.807,6.113-10.232A1.521,1.521,0,0,0,8.734.123a1.862,1.862,0,0,0-1.768.23C4.586,4.034,2.321,7.791,0,11.566Z" transform="matrix(0.574, -0.819, 0.819, 0.574, -3717.269, 7893.476)" fill="#a1ba1a"/>
    <path id="Path_96" data-name="Path 96" d="M798.014,333.467a2.519,2.519,0,0,0,2.5-2.236c.788-6.962,1.446-14.693,1.956-22.973a17.449,17.449,0,0,0-14.706-18.191l3.665-23.808a2.52,2.52,0,0,0-4.982-.766l-1.582,10.277-1.05-6.831a2.521,2.521,0,1,0-4.982.766l3.131,20.36a17.432,17.432,0,0,0-14.7,18.307c.553,8.131,1.248,15.8,2.068,22.8.366,3.127,5.432,3.11,4.954-1.033h10.576a2.52,2.52,0,0,0,0-5.04H773.739c-.5-4.789-.932-9.851-1.306-15.117h9.911a2.52,2.52,0,1,0,0-5.04h-9.87c1.892-10.092,14.691-13.49,21.645-6.1,4.393,4.672,3.34,9.463,2.839,16.176H784.864a2.519,2.519,0,1,0,0,5.038h11.689c-.316,3.7-.667,7.244-1.046,10.6a2.52,2.52,0,0,0,2.507,2.8" transform="translate(-4469.29 6679.904)" fill="#007a33" fill-rule="evenodd"/>
    <path id="Path_97" data-name="Path 97" d="M786.493,282.477a2.52,2.52,0,0,1,0-5.041h12.6a2.52,2.52,0,0,1,0,5.041Zm1.836,15.117c5.979-.007,5.7.015,6.209-.017a19.8,19.8,0,0,0,4.264,6.308C795.153,302.871,791.057,301.012,788.328,297.594Zm-4.354-7.559a2.522,2.522,0,0,1,2.518-2.52h7.561a2.52,2.52,0,0,1,0,5.04h-7.561A2.522,2.522,0,0,1,783.975,290.035Zm2.518-22.678h12.6a2.52,2.52,0,0,1,0,5.041h-12.6a2.52,2.52,0,0,1,0-5.041Zm0-10.079h12.6a2.52,2.52,0,0,1,0,5.041h-12.6a2.52,2.52,0,0,1,0-5.041Zm20.935,47.607c-3.484-2.714-7.677-6.894-8.265-9.287a7.538,7.538,0,0,0,1.915-8.348,7.56,7.56,0,0,0,3.642-12.334,7.538,7.538,0,0,0,0-10.079,7.563,7.563,0,0,0-5.628-12.6l-12.6,0a7.565,7.565,0,0,0-5.628,12.6,7.538,7.538,0,0,0,0,10.079,7.538,7.538,0,0,0,0,10.079,7.545,7.545,0,0,0,.68,10.748c1.416,5.127,7.453,11.136,17.627,13.443a17.1,17.1,0,0,0-4.311,17.928c2.54,7.24,5.081,14.007,7.556,20.115,1.195,2.949,6.043,1.507,4.52-2.268l10.288-2.06a2.52,2.52,0,0,0-.988-4.942L805.051,340.2c-1.278-3.293-5.163-13.673-5.671-15.509l7.884-1.969a2.52,2.52,0,0,0-1.222-4.89l-6.924,1.733c2.18-13.157,20.625-13.081,23.3-.527q.746,3.483,1.412,6.827l-10.117,2.021a2.521,2.521,0,0,0,.99,4.944l10.1-2.019c.732,3.855,1.384,7.548,1.946,11.047a2.52,2.52,0,1,0,4.976-.8c-1.222-7.591-2.783-15.623-4.373-23.072A16.949,16.949,0,0,0,807.427,304.886Z" transform="translate(-4455.353 6666.852)" fill="#007a33" fill-rule="evenodd"/>
    <path id="Path_100" data-name="Path 100" d="M754.525,261.341c14.547-.381,15.946.872,17.244-1.164,4.47-7.021,13.863-8.813,19.994-2.7,6.554,7.212,10.206,8.441,9.22,12.162a6.074,6.074,0,0,1-4.171,4.113c-2.223.59-3.375-.493-4.453-1.416l-8.48-7.255a2.519,2.519,0,0,0-3.274,3.829l8.4,7.188c9,8.966,23.554-5.105,14.185-14.323l-7.866-7.866c-8.148-8.118-20.59-6.259-27,2.4l-13.8,0a2.52,2.52,0,1,0,0,5.04" transform="translate(-4487.768 6662.447)" fill="#007a33" fill-rule="evenodd"/>
    <path id="Path_101" data-name="Path 101" d="M897.225,314.367h-8.241a20.162,20.162,0,0,0-38.321-5.9,15.1,15.1,0,0,0-13.757,0c-7.18-15.619-29.458-15.619-36.637,0a15.1,15.1,0,0,0-13.759,0,20.16,20.16,0,0,0-38.316,5.9h-7.718a2.519,2.519,0,1,0,0,5.038h10.079a2.521,2.521,0,0,0,2.52-2.518,15.119,15.119,0,0,1,29.724-3.911,2.521,2.521,0,0,0,1.683,1.758c2.628.82,3.258-2.888,8.908-2.888s6.285,3.706,8.908,2.888a2.527,2.527,0,0,0,1.685-1.758c3.971-14.885,25.235-14.9,29.21,0a2.523,2.523,0,0,0,1.685,1.758c2.63.822,3.25-2.888,8.906-2.888,5.639,0,6.284,3.706,8.908,2.888a2.523,2.523,0,0,0,1.685-1.758,15.119,15.119,0,0,1,29.725,3.911,2.519,2.519,0,0,0,2.52,2.518h10.6a2.512,2.512,0,0,0,1.995-.979v-3.078a2.514,2.514,0,0,0-1.995-.981" transform="translate(-4503.956 6719.164)" fill="#007a33" fill-rule="evenodd"/>
    <path id="Path_102" data-name="Path 102" d="M780.459,242.156a2.519,2.519,0,1,0-5.038,0V264.24a2.519,2.519,0,1,0,5.038,0Z" transform="translate(-4459.682 6651.71)" fill="#007a33" fill-rule="evenodd"/>
    <path id="Path_103" data-name="Path 103" d="M764.365,257.2A10.374,10.374,0,0,0,780,260.035a11.58,11.58,0,0,0,11.824,1.365l1.707,6.823a2.519,2.519,0,1,0,4.888-1.22l-2.236-8.945c2.316-2.946,3.6-8.239-.052-8.523a2.528,2.528,0,0,0-2.71,2.318c-.439,5.695-8.43,7.486-11.45,2.961a2.522,2.522,0,0,0-4.3.189c-2.163,3.949-8.717,2.742-9.343-1.681a2.52,2.52,0,0,0-1.552-1.984c-2.083-.839-2.5,1.156-4.815,1.156-3.928,0-4.451-4.371-2.843-6.446,1.808-2.331,3.857-.14,5.65-1.489a2.519,2.519,0,0,0,.992-1.827,6.314,6.314,0,0,1,11.585-2.925,2.52,2.52,0,0,0,4.264-.037,5.058,5.058,0,0,1,9.011.88,2.521,2.521,0,0,0,4.216.822,5.168,5.168,0,0,1,7-.31,2.518,2.518,0,0,0,3.4,0,5.169,5.169,0,0,1,7,.31,2.518,2.518,0,0,0,4.216-.829,5.075,5.075,0,0,1,9.007-.878,2.519,2.519,0,0,0,4.279.019c2.867-4.554,11.157-3.519,11.57,2.923a2.52,2.52,0,0,0,3.024,2.307,3.8,3.8,0,0,1,4.556,3.7A3.858,3.858,0,0,1,842.8,251.7a2.523,2.523,0,0,0-4.061,1.621c-.652,4.582-7.27,5.458-9.345,1.679a2.521,2.521,0,0,0-4.3-.194c-3.187,4.743-11.039,2.54-11.458-2.949a2.522,2.522,0,0,0-2.7-2.322c-3.68.282-2.368,5.617-.011,8.57l-2.307,11.532a2.52,2.52,0,0,0,4.942.99l1.831-9.16a11.967,11.967,0,0,0,7.526.635L821.3,267.9a2.519,2.519,0,1,0,4.851,1.36l2.307-8.228c4.664,2.774,11.51,1.337,14.254-3.844a8.944,8.944,0,0,0,11.218-8.471,8.851,8.851,0,0,0-8-8.779,10.737,10.737,0,0,0-7.821-7.6h-6.074a11.153,11.153,0,0,0-4.436,2.305,10.2,10.2,0,0,0-14.254,1.418,10.278,10.278,0,0,0-9.81.142,10.268,10.268,0,0,0-9.79-.153,10.162,10.162,0,0,0-14.256-1.412,10.941,10.941,0,0,0-4.141-2.3H768.9a11.227,11.227,0,0,0-7.714,7.529c-6.592.308-9.7,7.55-7.019,13.015a8.627,8.627,0,0,0,10.193,4.32" transform="translate(-4486.38 6643.123)" fill="#007a33" fill-rule="evenodd"/>
    <path id="Path_108" data-name="Path 108" d="M782.8,307.443a2.52,2.52,0,1,1-2.52-2.52,2.521,2.521,0,0,1,2.52,2.52" transform="translate(-4456.916 6728.772)" fill="#007a33" fill-rule="evenodd"/>
    <path id="Path_110" data-name="Path 110" d="M801.533,303.929a2.519,2.519,0,1,1-2.52-2.518,2.52,2.52,0,0,1,2.52,2.518" transform="translate(-4434.778 6724.623)" fill="#007a33" fill-rule="evenodd"/>
    <path id="Path_111" data-name="Path 111" d="M805.045,307.443a2.519,2.519,0,1,1-2.518-2.52,2.519,2.519,0,0,1,2.518,2.52" transform="translate(-4430.627 6728.772)" fill="#007a33" fill-rule="evenodd"/>
    <path id="Path_113" data-name="Path 113" d="M254.3,438.98a56.21,56.21,0,0,0-19.754-29.167A55.424,55.424,0,0,0,215.4,400.25a6.681,6.681,0,0,1,6.645-6.106,3.31,3.31,0,1,0,0-6.62,13.258,13.258,0,0,0-9.983,4.53,13.257,13.257,0,0,0-9.983-4.53,3.31,3.31,0,1,0,0,6.62,6.686,6.686,0,0,1,6.367,4.672,56.611,56.611,0,0,0-7.906-.551,55.972,55.972,0,0,0-5.97.318,29.093,29.093,0,0,0-20.926-13.608l.065-.06L185.8,372.823a47.043,47.043,0,0,0,10.651,1.187c1.019,0,2.086-.031,3.193-.1,8.414-.542,20.836-3.582,32.235-14.982s14.44-23.822,14.982-32.238a44.883,44.883,0,0,0-1.641-15.888,3.3,3.3,0,0,0-2.319-2.149l-.034-.011a45.782,45.782,0,0,0-11.934-1.666h-.04a3.31,3.31,0,0,0-.037,6.62,40.47,40.47,0,0,1,8.527.979,41.786,41.786,0,0,1,.852,11.965c-.744,10.477-5.129,19.8-13.038,27.708s-17.23,12.294-27.705,13.038a42.734,42.734,0,0,1-7.971-.182l24.267-24.267a3.31,3.31,0,0,0-4.681-4.681L186.843,362.42c-.9-7.832-.312-22.507,12.856-35.676a48.154,48.154,0,0,1,8.249-6.651,3.309,3.309,0,1,0-3.54-5.592,54.8,54.8,0,0,0-9.39,7.562c-11.4,11.4-14.44,23.822-14.982,32.235a47.957,47.957,0,0,0,1.084,13.844l-8.116,8.113V316.181c.383.009.786.011,1.218.011,6.489,0,18.1-1.172,25.775-8.706,10.316-10.125,8.933-27.8,8.652-30.521a3.313,3.313,0,0,0-3.083-3.117c-1.575-.136-19.43-1.431-29.973,8.911-9.492,9.316-9.39,24.682-9.126,29.2a3.331,3.331,0,0,0-.079.718v12.646a51.127,51.127,0,0,0-7.664-9.731,47.233,47.233,0,0,0-30.714-14.272,42.866,42.866,0,0,0-15.147,1.564,3.314,3.314,0,0,0-2.152,2.319l-.009.028c-1.238,4.241-6.435,26.371,12.788,45.594A47.228,47.228,0,0,0,154.2,365.094c1.05.068,2.067.1,3.037.1a45.684,45.684,0,0,0,9.146-.908V384.9a29.093,29.093,0,0,0-21.565,13.685,55.958,55.958,0,0,0-5.967-.318,56.622,56.622,0,0,0-7.908.551,6.69,6.69,0,0,1,6.367-4.672,3.31,3.31,0,1,0,0-6.62,13.258,13.258,0,0,0-9.983,4.53,13.258,13.258,0,0,0-9.983-4.53,3.31,3.31,0,1,0,0,6.62,6.679,6.679,0,0,1,6.645,6.106,55.424,55.424,0,0,0-19.149,9.563A56.243,56.243,0,0,0,85.09,438.98a3.292,3.292,0,0,0,.548,2.893,3.314,3.314,0,0,0,2.637,1.311H251.118a3.306,3.306,0,0,0,3.185-4.2m-74.074-151.5c6.438-6.313,16.978-7.131,21.994-7.131.139,5.146-.412,16.078-6.864,22.411-4.843,4.752-12.129,6.262-17.611,6.668l9.969-9.969a3.31,3.31,0,0,0-4.681-4.681l-9.8,9.8C173.771,299.2,175.443,292.181,180.229,287.483ZM128.172,346.14c-14.829-14.829-12.867-31.475-11.533-37.419a39.581,39.581,0,0,1,11.221-.781c9.9.707,18.709,4.854,26.184,12.328s11.621,16.285,12.328,26.184c.006.091.009.176.014.267v5.226c-.037.6-.088,1.172-.145,1.712L146.924,334.34a3.31,3.31,0,0,0-4.681,4.681l19.317,19.32C154.08,359.133,140.437,358.406,128.172,346.14Zm-16.983,90.425a30.23,30.23,0,0,1,15.485-15.351,3.308,3.308,0,0,0-2.663-6.058,36.8,36.8,0,0,0-19.947,21.409H92.851a49.415,49.415,0,0,1,46.006-31.682,49.924,49.924,0,0,1,7.273.536,3.312,3.312,0,0,0,3.429-1.763,22.613,22.613,0,0,1,40.277,0,3.312,3.312,0,0,0,3.429,1.763,49.934,49.934,0,0,1,7.275-.536,49.414,49.414,0,0,1,46,31.682Z" transform="translate(-3768.381 6234.242)" fill="#5c401f" fill-rule="evenodd"/>
    <path id="Path_115" data-name="Path 115" d="M106.217,322.455l-.207,0a3.31,3.31,0,0,0,.017,6.62h.19a3.311,3.311,0,0,0,0-6.623" transform="translate(-3735.934 6323.834)" fill="#5c401f" fill-rule="evenodd"/>
    <path id="Path_127" data-name="Path 127" d="M217.939,322.387a30.027,30.027,0,0,1-8.649,20.943l-5.039-.777a36.388,36.388,0,0,0,3.544-15.64V317.6a36.4,36.4,0,0,0-9.33-24.225,5.606,5.606,0,0,1,3.847-1.547,5.671,5.671,0,0,1,3.366,1.108,30.14,30.14,0,0,1,12.262,24.124Zm0,35.374a9.238,9.238,0,0,1-7.874,9.18l-86.959,13.377a22.818,22.818,0,0,1-3.472.267h-.6a22.824,22.824,0,1,1,0-45.647h.6a23.139,23.139,0,0,1,3.472.264l86.956,13.375A9.243,9.243,0,0,1,217.939,357.761Zm-137,12.632a2.092,2.092,0,0,1-2.475-1.986v-1a2.037,2.037,0,0,1,2.033-2.033H92.22c.227.795.494,1.574.785,2.339ZM70.855,357.761a2.54,2.54,0,0,1,2.534-2.537H91.267c-.074.837-.126,1.68-.126,2.537s.052,1.7.128,2.534H73.389A2.538,2.538,0,0,1,70.855,357.761Zm7.605-9.644v-1a2.069,2.069,0,0,1,2.48-1.986l12.067,2.682c-.294.765-.558,1.545-.782,2.342H80.493A2.037,2.037,0,0,1,78.46,348.117Zm22.076-33.469H98.749A10.071,10.071,0,0,1,89.3,300.9l.743-1.94-1.757-1.11a10.09,10.09,0,0,1-3.06-14.157l1.579-2.374-2.539-1.291a15.2,15.2,0,0,1,2.685-28.179l1.574-.452.237-1.619a10.174,10.174,0,0,1,9.987-8.671,2.172,2.172,0,0,1,.284.032c.17.025.346.049.521.062l1.826.153.718-1.685a10.122,10.122,0,0,1,19.287,2.2l.461,2.611,2.589-.577a9.348,9.348,0,0,1,5.545.365,15.2,15.2,0,0,0-8.911,6.991,15.281,15.281,0,0,0-14.182,11.423,20.376,20.376,0,0,0-13.212,19,20.165,20.165,0,0,0,8.874,16.756,15.147,15.147,0,0,0,4.247,17.75,14.572,14.572,0,0,0-.439,3.534,15.255,15.255,0,0,0,4.953,11.255,27.105,27.105,0,0,0-4.343,1.673Zm43.676-57.564.461,2.611,2.586-.577a10.053,10.053,0,0,1,2.209-.259A10.133,10.133,0,0,1,156.7,276.1l-1.745,1.777,1.745,1.779a10.086,10.086,0,0,1,2.912,7.1c0,.076-.015.151-.015.232a10.665,10.665,0,0,0-2.11-.232,10.8,10.8,0,0,0-6.379,2.1,35.349,35.349,0,0,0-10.715,12.879q-1.44-4.486-3.011-8.578a35.975,35.975,0,0,1,11.137-19.635l-1.589-1.977-1.584-1.982a40.171,40.171,0,0,0-11.065,15.991,157.56,157.56,0,0,0-10.577-20.452l-4.269,2.744a148.344,148.344,0,0,1,8.437,15.872c-7.583-2.858-16.2-2.068-16.7-2.016l.506,5.046c3.813-.385,14.616-.2,19.663,4.953,1.779,4.37,3.531,9.16,5.078,14.293-7.709-3.956-16.909-4.017-17.385-4.017v5.071c.118,0,11.408.077,18.093,5.389a33.987,33.987,0,0,0-.341,4.627v5.333a34.57,34.57,0,0,0,1.505,10.021l-14.421-2.219c-.763-.118-1.53-.195-2.3-.252a10.133,10.133,0,0,1-9.449-13.824l.743-1.942-1.759-1.11a10.092,10.092,0,0,1-3.057-14.157l1.579-2.374-2.539-1.291a15.2,15.2,0,0,1,2.687-28.179l1.574-.452.237-1.619a10.169,10.169,0,0,1,9.984-8.671,1.975,1.975,0,0,1,.274.032c.18.027.358.049.54.062l1.816.148.718-1.681a10.124,10.124,0,0,1,19.29,2.2Zm-.239,76.2a29.5,29.5,0,0,1-2.112-10.895v-5.335a30.147,30.147,0,0,1,12.262-24.124,5.706,5.706,0,0,1,3.366-1.1,5.607,5.607,0,0,1,3.975,1.648A35.917,35.917,0,0,0,152,317.6v9.313a35.552,35.552,0,0,0,.876,7.739Zm27.406-41.247.365,4.02c-2.867,1.4-4.523,3.521-4.523,5.915,0,2.8,2.28,5.13,5.821,6.448a55.9,55.9,0,0,0-.75,8.691v10.3a55.735,55.735,0,0,0,.985,10.386l-14.952-2.3a30.537,30.537,0,0,1-1.249-8.578V317.6a30.893,30.893,0,0,1,12.4-24.645A5.715,5.715,0,0,1,171.378,292.034ZM179.569,269h.661a4.751,4.751,0,0,1,4.745,4.743,4.187,4.187,0,0,1-.022.432l-2.3,25.326,1.935.622c2.221.708,2.922,1.646,2.922,1.846,0,.629-2.7,2.537-7.608,2.537s-7.608-1.907-7.608-2.537c0-.2.7-1.135,2.922-1.848l1.935-.622-2.3-25.326c-.012-.143-.017-.286-.017-.429A4.749,4.749,0,0,1,179.569,269Zm11.065,23.937A31.17,31.17,0,0,1,202.723,317.6v9.313a31.31,31.31,0,0,1-3.739,14.831l-20.334-3.129a50.44,50.44,0,0,1-1.288-11.213v-10.3a50.558,50.558,0,0,1,.644-7.64c.622.052,1.241.109,1.893.109,7.23,0,12.679-3.27,12.679-7.608,0-2.394-1.656-4.518-4.523-5.915l.373-4.1A5.3,5.3,0,0,1,190.634,292.937Zm32.376,24.119a35.232,35.232,0,0,0-14.32-28.206,10.782,10.782,0,0,0-6.379-2.1,10.674,10.674,0,0,0-7.509,3.09c-.368-.306-.7-.644-1.083-.935a10.552,10.552,0,0,0-4.832-1.979l1.118-12.3c.027-.294.039-.592.039-.888a9.825,9.825,0,0,0-9.814-9.814h-.661a9.825,9.825,0,0,0-9.814,9.814c0,.3.015.595.042.891l1.123,12.351a10.837,10.837,0,0,0-4.476,1.9c-.454.341-.856.733-1.293,1.088-.225-.232-.464-.449-.708-.661a15.338,15.338,0,0,0,.242-2.561,15.1,15.1,0,0,0-2.865-8.876,15.205,15.205,0,0,0-13.237-24.063,15.151,15.151,0,0,0-10.09-9.543,15,15,0,0,0-12.731-5.673,15.2,15.2,0,0,0-27.515-2.556,15.287,15.287,0,0,0-14.184,11.423,20.269,20.269,0,0,0-4.336,35.759,15.14,15.14,0,0,0,4.247,17.745,14.592,14.592,0,0,0-.439,3.536,15.243,15.243,0,0,0,13.39,15.107l5.609,15.707a28.082,28.082,0,0,0-7.206,7.813l-13.286-2.951a6.9,6.9,0,0,0-1.547-.173,7.115,7.115,0,0,0-7.1,7.107v1a7.131,7.131,0,0,0,.331,2.036h-.331a7.608,7.608,0,1,0,0,15.216h.331a7.113,7.113,0,0,0-.331,2.033v1a7.114,7.114,0,0,0,7.1,7.1,6.971,6.971,0,0,0,1.542-.168l13.291-2.954a27.88,27.88,0,0,0,23.71,13.266h.6a27.8,27.8,0,0,0,4.24-.326l86.959-13.375a14.329,14.329,0,0,0,3.956-27.13,35.083,35.083,0,0,0,8.222-22.439Z" transform="translate(-3666.519 7012.839)" fill="#a1ba1a" fill-rule="evenodd"/>
    <rect id="Rectangle_15" data-name="Rectangle 15" width="5.072" height="25.36" transform="translate(-3552.171 7358.648)" fill="#a1ba1a"/>
    <rect id="Rectangle_16" data-name="Rectangle 16" width="5.072" height="25.36" transform="translate(-3531.605 7358.648)" fill="#a1ba1a"/>
    <rect id="Rectangle_17" data-name="Rectangle 17" width="5.072" height="25.36" transform="translate(-3511.039 7358.648)" fill="#a1ba1a"/>
    <rect id="Rectangle_18" data-name="Rectangle 18" width="5.072" height="15.216" transform="translate(-3490.473 7363.718)" fill="#a1ba1a"/>
    <rect id="Rectangle_19" data-name="Rectangle 19" width="5.072" height="10.144" transform="translate(-3469.907 7366.252)" fill="#a1ba1a"/>
    <path id="Path_128" data-name="Path 128" d="M135.219,233.507a34.784,34.784,0,1,1-24.593,10.187,34.672,34.672,0,0,1,24.593-10.187" transform="translate(-3616.613 7019.875)" fill="#a1ba1a"/>
    <path id="Path_129" data-name="Path 129" d="M120.472,265.687l22.482-24.619,3.943,3.6-26.158,28.644-14.432-13.736,3.682-3.868Z" transform="translate(-3608.133 7030.99)" fill="#fff" fill-rule="evenodd"/>
    <path id="Path_144" data-name="Path 144" d="M384.542,430.016l-.031-.023a3.061,3.061,0,0,0-3.7,4.88l.028.02a3.06,3.06,0,1,0,3.7-4.877" transform="translate(-4009.726 7340.553)" fill="#ba821a" fill-rule="evenodd"/>
    <path id="Path_145" data-name="Path 145" d="M380.816,425.013l.028.02a3.06,3.06,0,1,0,3.7-4.877l-.031-.023a3.061,3.061,0,0,0-3.7,4.88" transform="translate(-4009.726 7324.974)" fill="#ba821a" fill-rule="evenodd"/>
    <path id="Path_146" data-name="Path 146" d="M380.816,415.153l.028.02a3.061,3.061,0,1,0,3.7-4.877l-.031-.023a3.061,3.061,0,0,0-3.7,4.88" transform="translate(-4009.726 7309.395)" fill="#ba821a" fill-rule="evenodd"/>
    <path id="Path_147" data-name="Path 147" d="M373.218,420.708h.041a3.061,3.061,0,0,0,0-6.122h-.041a3.061,3.061,0,1,0,0,6.122" transform="translate(-4024.658 7317.19)" fill="#ba821a" fill-rule="evenodd"/>
    <path id="Path_150" data-name="Path 150" d="M480.6,450.444H467.887a18.215,18.215,0,0,0-.868-32.081,18.225,18.225,0,0,0-25.547-23.34,21.173,21.173,0,0,0-12.2-3.864c-.3,0-.593.01-.888.023a23.681,23.681,0,0,0-43.757-2.589q-1.1-.1-2.2-.1A23.691,23.691,0,0,0,360.6,402.971q-.974-.3-1.978-.522c.351-3.912,1.593-6.911,3.711-8.927a8.217,8.217,0,0,1,3.772-2.136l-.041.008v0a3.059,3.059,0,0,0-.44-6.086,3.107,3.107,0,0,0-.512.046v-.005a13.407,13.407,0,0,0-6.6,3.375V378.208a3.064,3.064,0,0,0-3.062-3.062h-7.346a3.063,3.063,0,0,0-3.06,3.062v11.445a36.757,36.757,0,0,0-7.616-7.031,3.061,3.061,0,0,0-3.35,5.124c.1.066,9.362,6.267,10.737,15.189-10.358,3.111-17.877,12.213-17.877,22.932,0,4.455,2.54,15.151,5.032,24.577h-1.97a3.06,3.06,0,0,0-3.062,3.06v75.3a3.06,3.06,0,0,0,3.062,3.06H480.6a3.061,3.061,0,0,0,3.062-3.06V453.5a3.061,3.061,0,0,0-3.062-3.06m-98.172-55.833a17.78,17.78,0,0,1,3.505.351,3.059,3.059,0,0,0,3.492-1.978,17.56,17.56,0,0,1,32.867-.639,21.226,21.226,0,0,0-14.214,20.01,3.061,3.061,0,0,0,6.122,0,15.069,15.069,0,0,1,25.068-11.279,3.066,3.066,0,0,0,3.869.158,11.987,11.987,0,0,1,7.252-2.418,12.1,12.1,0,0,1,9.709,19.307,3.059,3.059,0,0,0,1.705,4.8,12.094,12.094,0,0,1-2.968,23.818,12.267,12.267,0,0,1-2.291-.219,3.063,3.063,0,0,0-3.462,1.978,12.139,12.139,0,0,1-.9,1.947h-3.864l12.534-17.969a3.062,3.062,0,0,0-.815-4.3l-8.924-5.939a3.063,3.063,0,0,0-4.315.965l-4.462,7.39,3.653-18.478a3.062,3.062,0,0,0-2.388-3.592l-7.787-1.6a3.064,3.064,0,0,0-3.627,2.439l-1,5.366h-7.143a3.063,3.063,0,0,0-3.062,3.06V435.4a22.648,22.648,0,0,0-43.2-4.205,33.779,33.779,0,0,0,.583-5.328,22.736,22.736,0,0,0-3.111-11.47,11.222,11.222,0,0,1,10.521-7.349,11.363,11.363,0,0,1,2.237.224,3.059,3.059,0,0,0,3.495-1.98,11.3,11.3,0,0,1,3.3-4.813,3.06,3.06,0,1,0-3.979-4.651,17.415,17.415,0,0,0-4.093,5.127c-.321-.018-.644-.028-.965-.028a17.342,17.342,0,0,0-14.7,8.163,25.694,25.694,0,0,0-4.862-3.671A17.568,17.568,0,0,1,382.427,394.611Zm56.431,53.582,11.529-19.089,3.658,2.433-13.188,18.905h-2.444Zm-3.828-12.2v-8.5c.015-.066.033-.13.046-.2l2.561-13.756,1.759.361Zm-7.944,9.138a2.646,2.646,0,0,0,.023-.351V420.848h1.8v29.6h-.967c.01-.193.015-.384.015-.578A13.283,13.283,0,0,0,427.085,445.132ZM385.1,430.854c-.089,0-.178.005-.27.005a16.521,16.521,0,0,1,30.177,5.885,12.763,12.763,0,0,0-10.312,5.422A22.648,22.648,0,0,0,385.1,430.854Zm16.24,19.59H368.865a16.524,16.524,0,0,1,32.478,0Zm13.756-7.581a6.881,6.881,0,0,1,6.735,7c0,.193-.01.384-.025.578h-13.42c-.015-.193-.023-.384-.023-.578A6.88,6.88,0,0,1,415.1,442.864Zm-63.922-61.6H352.4v20.524c-.41.005-.82.015-1.224.038Zm-17.923,42.181a2.989,2.989,0,0,0,.588.059h15.133a3.061,3.061,0,0,0,0-6.122H335.4a19.916,19.916,0,0,1,17.261-9.477c10.8,0,19.59,8.057,19.59,17.958a30.978,30.978,0,0,1-.613,4.987H359.477a3.061,3.061,0,1,0,0,6.122h10.164a22.612,22.612,0,0,0-6.975,13.468h-24.35c-3.345-12.486-5.246-21.38-5.246-24.577A16.518,16.518,0,0,1,333.253,423.449ZM477.539,475.54H450.6a3.061,3.061,0,0,0,0,6.122h26.936v18.977H381a3.061,3.061,0,1,0,0,6.122h96.535v18.977H333.07V506.761H360a3.061,3.061,0,1,0,0-6.122H333.07V481.662h96.535a3.061,3.061,0,1,0,0-6.122H333.07V456.563H477.539Z" transform="translate(-4092.948 7256.386)" fill="#ba821a" fill-rule="evenodd"/>
    <path id="Path_162" data-name="Path 162" d="M774.936,236.642a3.838,3.838,0,0,1,3.84,3.84v26.9h6.111a24.269,24.269,0,0,1,48.23,0h80.061V156.027h-134.4V168.1a3.84,3.84,0,0,1-7.68,0V152.187a3.84,3.84,0,0,1,3.84-3.84H917.017a3.84,3.84,0,0,1,3.84,3.84v3.84h43.975A17.488,17.488,0,0,1,982.3,173.493v5.575a3.84,3.84,0,0,1-3.84,3.84h-4.465L976.92,218.1a17.45,17.45,0,0,1,13.056,16.831v32.453a3.838,3.838,0,0,1-3.84,3.84H978.36a24.937,24.937,0,0,1-49.727,0c-.034,0-.063.021-.1.021h-7.679a3.84,3.84,0,0,1-3.84,3.84H832.768a24.277,24.277,0,0,1-47.531,0h-10.3a3.84,3.84,0,0,1-3.84-3.84V240.482a3.838,3.838,0,0,1,3.84-3.84m199.681-63.148a9.794,9.794,0,0,0-9.785-9.784H920.857v11.519h53.76Zm-53.76,9.415v34.558h48.308l-2.881-34.558ZM953.5,286.588a17.28,17.28,0,1,0-17.282-17.282A17.281,17.281,0,0,0,953.5,286.588Zm-24.962-23.041a3.373,3.373,0,0,1,.665.135,24.93,24.93,0,0,1,48.557-.135H982.3V234.933a9.794,9.794,0,0,0-9.785-9.785H920.857v38.4ZM809,286.711a16.594,16.594,0,0,0,16.313-13.76,3.452,3.452,0,0,1,.2-3.736A16.565,16.565,0,1,0,809,286.711Z" transform="translate(-4378 7889.555)" fill="#e87817" fill-rule="evenodd"/>
    <path id="Path_163" data-name="Path 163" d="M776.41,160.14h53.76a3.84,3.84,0,1,1,0,7.68H776.41a3.84,3.84,0,0,1,0-7.68" transform="translate(-4378.122 7908.483)" fill="#e87817" fill-rule="evenodd"/>
    <path id="Path_164" data-name="Path 164" d="M773.462,176.354h84.481a3.841,3.841,0,0,1,0,7.682H773.462a3.841,3.841,0,0,1,0-7.682" transform="translate(-4382.712 7934.507)" fill="#e87817" fill-rule="evenodd"/>
    <path id="Path_165" data-name="Path 165" d="M776.41,167.51h42.24a3.84,3.84,0,1,1,0,7.68H776.41a3.84,3.84,0,0,1,0-7.68" transform="translate(-4378.213 7920.313)" fill="#e87817" fill-rule="evenodd"/>
    <path id="Path_166" data-name="Path 166" d="M775.245,167.82h-7.68a3.84,3.84,0,0,1,0-7.68h7.68a3.84,3.84,0,1,1,0,7.68" transform="translate(-4392.971 7908.483)" fill="#e87817" fill-rule="evenodd"/>
    <path id="Path_167" data-name="Path 167" d="M766.092,176.354h7.68a3.841,3.841,0,0,1,0,7.682h-7.68a3.841,3.841,0,0,1,0-7.682" transform="translate(-4395.392 7934.507)" fill="#e87817" fill-rule="evenodd"/>
    <path id="Path_168" data-name="Path 168" d="M764.618,167.51h15.359a3.84,3.84,0,1,1,0,7.68H764.618a3.84,3.84,0,1,1,0-7.68" transform="translate(-4397.772 7920.313)" fill="#e87817" fill-rule="evenodd"/>
    <path id="Path_169" data-name="Path 169" d="M2.44,11.335C-2.012,8.68,1.137,4.443.4,1.012.12-.318,1.514-.171,2.44.5Z" transform="translate(-3424.495 6888.784) rotate(-10)" fill="#a1ba1a"/>
    <path id="Path_170" data-name="Path 170" d="M3.038,5.217c-.679,1.759.862,5.424-1.485,5.275-2.832-.179-.83-3.718-1.306-5.72a2.216,2.216,0,0,1,.038-.961C.6,2.4-.35-.068,1.907,0c1.83.055.929,2.342,1.121,3.667A11.609,11.609,0,0,1,3.038,5.217Z" transform="translate(-3576.095 6818.861) rotate(-10)" fill="#a1ba1a"/>
    <path id="Path_171" data-name="Path 171" d="M5.539.195C6.986.982,10.552-1.249,10.5,1.36c-.057,2.632-3.683,1.281-5.773,1.549a4.467,4.467,0,0,1-1.444-.1C1.992,2.537-.149,3.042.008,1.069.143-.625,2.1.234,3.272.109A17.082,17.082,0,0,1,5.539.195Z" transform="translate(-3478.111 6959.349) rotate(-10)" fill="#a1ba1a"/>
    <path id="Path_172" data-name="Path 172" d="M3.379,8.877c.308,1.014.24,2.11-.992,2.211-.848.069-1.231-.907-1.354-1.711C.67,6.992.316,4.6.05,2.207-.054,1.28-.122,0,1.192,0c1.14,0,1.323,1.246,1.447,2.171C2.938,4.4,3.139,6.641,3.379,8.877Z" transform="translate(-3564.446 6876.746) rotate(-10)" fill="#a1ba1a"/>
    <path id="Path_173" data-name="Path 173" d="M4.441,8.741c.108,1.109-.177,1.874-1.115,2.078-.732.16-1.207-.417-1.374-1.06C1.258,7.074.564,4.387.012,1.671A1.836,1.836,0,0,1,.822.125C1.866-.359,2.274.667,2.48,1.36,3.223,3.863,3.831,6.4,4.441,8.741Z" transform="translate(-3430.76 6871.481) rotate(-10)" fill="#a1ba1a"/>
    <path id="Path_174" data-name="Path 174" d="M4.526,1.761C3.762,4.783,3.183,7.3,2.457,9.767a1.8,1.8,0,0,1-1.3,1.088C.2,10.819-.163,10,.068,9.107.714,6.614,1.381,4.123,2.14,1.662,2.354.969,2.574-.123,3.561.011,4.971.2,4.49,1.389,4.526,1.761Z" transform="translate(-3578.031 6710.086) rotate(-10)" fill="#a1ba1a"/>
    <path id="Path_175" data-name="Path 175" d="M8.237,7.989C3.736,7.845,2.344,4.563.291,2.02A1.186,1.186,0,0,1,.5.27C1.37-.344,2,.191,2.537.861Q5.39,4.423,8.237,7.989Z" transform="translate(-3528.251 6939.968) rotate(-10)" fill="#a1ba1a"/>
    <path id="Path_176" data-name="Path 176" d="M10.621,1.216c-.157.253-.3.782-.636.96a6.725,6.725,0,0,1-1.837.509C5.537,3.21,3.011,4.384.261,3.778.1,3.742-.1,2.7.058,2.578,2.738.548,6.117.89,9.152.032,9.675-.115,10.419.236,10.621,1.216Z" transform="translate(-3617.301 6846.632) rotate(-10)" fill="#a1ba1a"/>
    <path id="Path_177" data-name="Path 177" d="M.819,7.741A12.868,12.868,0,0,1,.09,6.359,1.362,1.362,0,0,1,.754,4.693C3.057,3.154,5.378,1.639,7.73.175A1.406,1.406,0,0,1,8.992.129c.281.2.527,1,.375,1.174C7.077,3.9,4.069,5.522.819,7.741Z" transform="translate(-3444.864 6940.94) rotate(-10)" fill="#a1ba1a"/>
    <path id="Path_178" data-name="Path 178" d="M.452,12.193C-.778,7.679.886,4.444.937,1.136.944.751,1.782.378,2.234,0c.372.486,1.141,1.066,1.052,1.443C2.516,4.676,3.21,8.276.452,12.193Z" transform="translate(-3579.062 6782.528) rotate(-10)" fill="#a1ba1a"/>
    <path id="Path_179" data-name="Path 179" d="M3.994,3.028A12.034,12.034,0,0,1,1.482,3.3,1.876,1.876,0,0,1,.065,2.344C-.243,1.319.6,1,1.452.9,3.694.623,5.936.354,8.183.118,9.275,0,10.811-.362,10.841,1.23c.026,1.356-1.5,1.4-2.613,1.493C6.942,2.836,5.652,2.91,3.994,3.028Z" transform="translate(-3599.871 6841.182) rotate(-10)" fill="#a1ba1a"/>
    <path id="Path_180" data-name="Path 180" d="M11.1.917C8.124,2.831,4.873,2.424,1.733,2.73.851,2.816-.039,2.423,0,1.494A1.624,1.624,0,0,1,1.729.119C4.845.135,8.018-.473,11.1.917Z" transform="translate(-3582.173 6832.544) rotate(-10)" fill="#a1ba1a"/>
    <path id="Path_181" data-name="Path 181" d="M.011,11.487C-.189,6.162,2.392,3.34,3.981.18c.1-.191.935-.257,1.178-.065a1.411,1.411,0,0,1,.477,1.221C4.274,4.475,3.349,7.889.011,11.487Z" transform="translate(-3575.223 6692.856) rotate(-10)" fill="#a1ba1a"/>
    <path id="Path_182" data-name="Path 182" d="M3.263,0C4.6,4.515,2.825,7.594,2.229,10.786a1.1,1.1,0,0,1-1.445.935c-.347-.122-.834-.7-.78-.977C.658,7.395.727,3.83,3.263,0Z" transform="translate(-3579.132 6727.142) rotate(-10)" fill="#a1ba1a"/>
    <path id="Path_183" data-name="Path 183" d="M2.868.276c1.441.419,4.107,1.145,6.729,2,.466.153,1.25.605.807,1.468a1.346,1.346,0,0,1-1.586.82Q4.839,3.441.9,2.18A1.117,1.117,0,0,1,.082.672C.345-.053.953-.2,2.868.276Z" transform="translate(-3508.751 6825.951) rotate(-10)" fill="#a1ba1a"/>
    <path id="Path_184" data-name="Path 184" d="M1.131,0c1.284-.014,6.213,8.045,5.58,9.191-.35.634-1.156.975-1.573.342Q2.473,5.487.084,1.266C-.217.734.328.059,1.131,0Z" transform="translate(-3441.454 6856.9) rotate(-10)" fill="#a1ba1a"/>
    <path id="Path_185" data-name="Path 185" d="M7.208,3.078c-1.4-.112-3.525-.253-5.644-.472C.741,2.52-.123,2.183.014,1.157.146.181.98-.078,1.873.019,3.99.246,6.108.48,8.218.764,9.259.9,10.93.554,10.723,2.238,10.534,3.783,9.059,3.4,7.208,3.078Z" transform="translate(-3545.69 6826.383) rotate(-10)" fill="#a1ba1a"/>
    <path id="Path_186" data-name="Path 186" d="M0,0C2.38,3.046,5.242,5.807,5.148,9.92,2.224,7.176-.009,4.1,0,0Z" transform="translate(-3539.844 6926.124) rotate(-10)" fill="#a1ba1a"/>
    <path id="Path_187" data-name="Path 187" d="M0,8.39C1.582,4.946,3.647,1.9,7.013,0A12.118,12.118,0,0,1,0,8.39Z" transform="translate(-3432.838 6925.576) rotate(-10)" fill="#a1ba1a"/>
    <path id="Path_188" data-name="Path 188" d="M9.521,6.312c-.343.921-.909,1.314-1.825.728C5.364,5.551,3.032,4.06.728,2.527A1.323,1.323,0,0,1,.11.849C.388.191.93-.274,1.617.183c2.571,1.708,5.1,3.474,7.625,5.256C9.44,5.578,9.431,6.009,9.521,6.312Z" transform="translate(-3472.911 6837.269) rotate(-10)" fill="#a1ba1a"/>
    <path id="Path_189" data-name="Path 189" d="M4.3,11.993C.833,8.169,1.02,4.613.057,1.5A1.137,1.137,0,0,1,.939.008a1.283,1.283,0,0,1,1.108.54A35.484,35.484,0,0,1,4.3,11.993Z" transform="translate(-3558.35 6894.224) rotate(-10)" fill="#a1ba1a"/>
    <path id="Path_190" data-name="Path 190" d="M0,1.035C.144-.071.768-.161,1.692.166c2.444.864,4.92,1.643,7.341,2.563a2.091,2.091,0,0,1,1.179,1.3A1.025,1.025,0,0,1,8.99,5.177C6.02,4.395,3.01,3.663.427,1.877.2,1.723.143,1.33,0,1.035Z" transform="translate(-3496.315 6957.842) rotate(-10)" fill="#a1ba1a"/>
    <path id="Path_191" data-name="Path 191" d="M2.058,0c.771.822,1.177,1.061,1.16,1.265-.283,3.341.16,6.836-1.926,9.8C1.2,11.2.152,10.962.132,10.815-.375,7.182.648,3.83,2.058,0Z" transform="translate(-3579.592 6763.777) rotate(-10)" fill="#a1ba1a"/>
    <path id="Path_192" data-name="Path 192" d="M11.626,2.821C7.3,4.394,4.266,2.387,1.1,2.353A1.1,1.1,0,0,1,.009,1.033a1.116,1.116,0,0,1,1.4-1.01C4.539.552,7.842.462,11.626,2.821Z" transform="translate(-3527.114 6825.486) rotate(-10)" fill="#a1ba1a"/>
    <path id="Path_193" data-name="Path 193" d="M11.605,0C7.955,3.23,4.792,3.843,1.648,4.471,1.008,4.6.263,4.479.055,3.743A1.072,1.072,0,0,1,.961,2.306C4.059,1.7,6.907-.081,11.605,0Z" transform="translate(-3459.804 6953.017) rotate(-10)" fill="#a1ba1a"/>
    <path id="Path_194" data-name="Path 194" d="M2.159,12.082C.241,7.916.549,4.8.036,1.862-.1,1.071.13.122,1.157.01,2.24-.109,2.46.864,2.525,1.622,2.784,4.624,3.435,7.648,2.159,12.082Z" transform="translate(-3569.476 6859.242) rotate(-10)" fill="#a1ba1a"/>
    <path id="Path_195" data-name="Path 195" d="M3.079,4.765c-.686,1.67.623,5.711-1.688,5.456C-1.423,9.911.938,6.438.735,4.368a4.054,4.054,0,0,1,.14-1.463C1.184,1.8.4-.236,2.437.022c1.414.178.706,1.87.756,2.923C3.217,3.433,3.136,3.926,3.079,4.765Z" transform="translate(-3578.196 6801.016) rotate(-10)" fill="#a1ba1a"/>
    <path id="Path_196" data-name="Path 196" d="M10.441.665a1.294,1.294,0,0,1-.993,1.592C6.79,3.012,4.11,3.692,1.42,4.321A1.073,1.073,0,0,1,0,3.392,1.444,1.444,0,0,1,.515,2.2,29.954,29.954,0,0,1,9.436,0C9.774-.036,10.173.478,10.441.665Z" transform="translate(-3634.315 6853.655) rotate(-10)" fill="#a1ba1a"/>
    <path id="Path_197" data-name="Path 197" d="M11.486,4.644A27.823,27.823,0,0,1,0,.388C3.461-.724,7.025.512,11.486,4.644Z" transform="translate(-3490.83 6829.279) rotate(-10)" fill="#a1ba1a"/>
    <path id="Path_198" data-name="Path 198" d="M3.055,0c1.171,3.231-.265,6.122-.522,9.131A1.49,1.49,0,0,1,1.02,10.674,1.025,1.025,0,0,1,.043,9.313C.876,6.172.859,2.751,3.055,0Z" transform="translate(-3579.674 6746.363) rotate(-10)" fill="#a1ba1a"/>
    <path id="Path_199" data-name="Path 199" d="M3.973,10.335A12.075,12.075,0,0,1,.046,0,13.571,13.571,0,0,1,3.973,10.335Z" transform="translate(-3549.767 6910.623) rotate(-10)" fill="#a1ba1a"/>
    <path id="Path_200" data-name="Path 200" d="M0,0C3.65,1.605,6.62,3.907,7.725,8.068,4.62,5.93,1.678,3.634,0,0Z" transform="translate(-3455.218 6845.563) rotate(-10)" fill="#a1ba1a"/>
    <path id="Path_201" data-name="Path 201" d="M7.84,7.472C5.348,5.581,2.859,3.737.431,1.815A.951.951,0,0,1,.507.177,1.4,1.4,0,0,1,1.762.126Q5.347,2.689,8.819,5.4a1.388,1.388,0,0,1,.319,1.272C9,7.007,8.406,7.149,7.84,7.472Z" transform="translate(-3513.526 6951.011) rotate(-10)" fill="#a1ba1a"/>
    <path id="Path_202" data-name="Path 202" d="M5.36,2.29C4.469,4.141,3.3,6.618,2.082,9.071a1.051,1.051,0,0,1-1.573.555,1.376,1.376,0,0,1-.479-1.22q1.7-4.018,3.6-7.951A1.347,1.347,0,0,1,4.837.022C5.579.226,5.585.93,5.36,2.29Z" transform="translate(-3425.374 6907.765) rotate(-10)" fill="#a1ba1a"/>
    <path id="Path_203" data-name="Path 203" d="M1.079,10.846C-.672,7.255.022,3.641.962,0A16.366,16.366,0,0,1,1.079,10.846Z" transform="translate(-3572.788 6841.101) rotate(-10)" fill="#a1ba1a"/>
    <path id="Path_204" data-name="Path 204" d="M12.1,1.611A28.174,28.174,0,0,1,0,1.6C2.89-.493,6.7-.578,12.1,1.611Z" transform="translate(-3564.079 6829.238) rotate(-10)" fill="#a1ba1a"/>
    <path id="Path_205" data-name="Path 205" d="M.486,0,3.231.1C2.622,1.114,2.736,3.019.99,2.713-.92,2.38.53.948.486,0Z" transform="translate(-3569.58 6682.6) rotate(-10)" fill="#a1ba1a"/>
    <path id="Path_207" data-name="Path 207" d="M.117,2.831c.421,2.805.789,5.406,1.215,8,.159.957.594,1.866,1.764,1.689,1.191-.18,1.326-1.187,1.193-2.162-.355-2.6-.682-5.214-1.192-7.789C2.866,1.4,2.771-.449.863.1-.5.491.17,1.993.117,2.831Z" transform="matrix(0.574, -0.819, 0.819, 0.574, -3631.244, 7231.553)" fill="#a1ba1a"/>
    <path id="Path_214" data-name="Path 214" d="M.488.115C-.667,4.473.441,8.549,1.6,12.621l1.837-.181Q2.814,6.22,2.2,0Z" transform="matrix(0.574, -0.819, 0.819, 0.574, -3649.902, 7221.448)" fill="#a1ba1a"/>
    <path id="Path_215" data-name="Path 215" d="M.926,0C-.233,4.306-.556,8.573,1.449,12.69A15.155,15.155,0,0,0,.926,0Z" transform="matrix(0.574, -0.819, 0.819, 0.574, -3668.387, 7210.139)" fill="#a1ba1a"/>
    <path id="Path_216" data-name="Path 216" d="M1.165,12.345A16.653,16.653,0,0,0,1.6,0C-.691,4.018-.23,8.184,1.165,12.345Z" transform="matrix(0.574, -0.819, 0.819, 0.574, -3685.862, 7198.033)" fill="#a1ba1a"/>
    <path id="Path_206-2" data-name="Path 206" d="M2.731,16.542C-.192,10.7-.254,5.652.223,0,3.674,3.587,4.781,10.341,2.731,16.542Z" transform="matrix(-0.574, -0.819, 0.819, -0.574, -3544.741, 7561.415)" fill="#a1ba1a"/>
    <path id="Path_207-2" data-name="Path 207" d="M.136,11.27c.489-3.256.916-6.275,1.41-9.284C1.731.876,2.236-.18,3.594.026,4.976.235,5.134,1.4,4.979,2.536c-.412,3.02-.792,6.053-1.384,9.041-.268,1.357-.378,3.5-2.594,2.865C-.575,13.987.2,12.244.136,11.27Z" transform="matrix(-0.574, -0.819, 0.819, -0.574, -3627.227, 7615.416)" fill="#a1ba1a"/>
    <path id="Path_208-2" data-name="Path 208" d="M1.342,0C4.455,1.612,4.073,4.753,4.39,7.053c.335,2.443,4.124,6.253.119,7.259-2.715.682-2.642-4.405-3.3-6.949C.645,5.154-1.276,2.438,1.342,0Z" transform="matrix(-0.574, -0.819, 0.819, -0.574, -3526.514, 7544.313)" fill="#a1ba1a"/>
    <path id="Path_209-3" data-name="Path 209" d="M11.287,11.679C4.961,10.031,3.328,5.321.324,2.149A1.284,1.284,0,0,1,1,.056,2.709,2.709,0,0,1,3.339.641C5.753,3.926,9.148,6.516,11.287,11.679Z" transform="matrix(-0.574, -0.819, 0.819, -0.574, -3488.321, 7480.196)" fill="#a1ba1a"/>
    <path id="Path_210-3" data-name="Path 210" d="M6.823,15.883C2.857,10.974,1.83,6.726.264,2.751-.172,1.647-.186.54,1.148.085A1.554,1.554,0,0,1,3.132,1.321C4.254,5.606,7.536,9.308,6.823,15.883Z" transform="matrix(-0.574, -0.819, 0.819, -0.574, -3510.695, 7524.749)" fill="#a1ba1a"/>
    <path id="Path_211-3" data-name="Path 211" d="M0,1.378A1.367,1.367,0,0,1,1.822.065a7.184,7.184,0,0,1,2.863,1.55c2.641,2.445,7.161,2.491,8.4,6.618.049.159-1.126,1.014-1.362.882C7.923,7,4.174,4.782.445,2.535.165,2.366.139,1.777,0,1.378Z" transform="matrix(-0.574, -0.819, 0.819, -0.574, -3482.277, 7431.378)" fill="#a1ba1a"/>
    <path id="Path_212-3" data-name="Path 212" d="M11.653,9.421C6.1,8.351,2.758,4.555,0,0,5.2,1.4,8.653,5.137,11.653,9.421Z" transform="matrix(-0.574, -0.819, 0.819, -0.574, -3483.131, 7455.604)" fill="#a1ba1a"/>
    <path id="Path_213-3" data-name="Path 213" d="M0,1.641C.659.835.962.11,1.4.022A1.944,1.944,0,0,1,3.067.6C5.143,3.927,7.113,7.32,9.1,10.7a1.5,1.5,0,0,1-.48,2.237,1.838,1.838,0,0,1-1.745-.227C4.527,9.076,2.291,5.368,0,1.641Z" transform="matrix(-0.574, -0.819, 0.819, -0.574, -3497.65, 7503.679)" fill="#a1ba1a"/>
    <path id="Path_214-2" data-name="Path 214" d="M.567,14.517C-.774,9.459.512,4.727,1.852,0L3.985.211Q3.267,7.431,2.55,14.65Z" transform="matrix(-0.574, -0.819, 0.819, -0.574, -3605.641, 7603.736)" fill="#a1ba1a"/>
    <path id="Path_215-2" data-name="Path 215" d="M1.075,14.73C-.27,9.732-.645,4.779,1.682,0A17.591,17.591,0,0,1,1.075,14.73Z" transform="matrix(-0.574, -0.819, 0.819, -0.574, -3584.247, 7590.652)" fill="#a1ba1a"/>
    <path id="Path_216-2" data-name="Path 216" d="M1.352,0a19.331,19.331,0,0,1,.5,14.331C-.8,9.667-.267,4.831,1.352,0Z" transform="matrix(-0.574, -0.819, 0.819, -0.574, -3563.632, 7576.369)" fill="#a1ba1a"/>
    <path id="Path_206-3" data-name="Path 206" d="M2.767,0C-.194,5.917-.258,11.032.226,16.758,3.722,13.124,4.844,6.282,2.767,0Z" transform="matrix(0.574, -0.819, 0.819, 0.574, -3671.763, 7949.139)" fill="#a1ba1a"/>
    <path id="Path_207-3" data-name="Path 207" d="M.138,3.33c.5,3.3.928,6.357,1.429,9.405.186,1.125.7,2.194,2.074,1.986,1.4-.212,1.56-1.4,1.4-2.543-.417-3.06-.8-6.132-1.4-9.159C3.371,1.644,3.259-.528,1.015.117-.583.577.2,2.344.138,3.33Z" transform="matrix(0.574, -0.819, 0.819, 0.574, -3586.551, 8004.263)" fill="#a1ba1a"/>
    <path id="Path_208-3" data-name="Path 208" d="M1.359,14.562c3.154-1.633,2.767-4.815,3.088-7.145.339-2.475,4.178-6.334.12-7.354C1.817-.628,1.891,4.526,1.228,7.1.653,9.34-1.293,12.092,1.359,14.562Z" transform="matrix(0.574, -0.819, 0.819, 0.574, -3688.43, 7933.312)" fill="#a1ba1a"/>
    <path id="Path_214-3" data-name="Path 214" d="M.574.135C-.784,5.26.519,10.053,1.876,14.842l2.16-.213Q3.31,7.314,2.584,0Z" transform="matrix(0.574, -0.819, 0.819, 0.574, -3608.495, 7992.532)" fill="#a1ba1a"/>
    <path id="Path_215-3" data-name="Path 215" d="M1.089,0C-.274,5.064-.653,10.082,1.7,14.923A17.821,17.821,0,0,0,1.089,0Z" transform="matrix(0.574, -0.819, 0.819, 0.574, -3630.234, 7979.405)" fill="#a1ba1a"/>
    <path id="Path_216-3" data-name="Path 216" d="M1.37,14.518A19.583,19.583,0,0,0,1.878,0C-.812,4.725-.271,9.624,1.37,14.518Z" transform="matrix(0.574, -0.819, 0.819, 0.574, -3650.786, 7965.361)" fill="#a1ba1a"/>
  </g>
</svg>
